<svg xmlns="http://www.w3.org/2000/svg" xmlns:xlink="http://www.w3.org/1999/xlink" width="500" zoomAndPan="magnify" viewBox="0 0 375 374.999991" height="500" preserveAspectRatio="xMidYMid meet" version="1.0"><defs><g/><clipPath id="b40d4d9c65"><path d="M 172.808594 149.109375 L 202.191406 149.109375 L 202.191406 248.910156 L 172.808594 248.910156 Z M 172.808594 149.109375 " clip-rule="nonzero"/></clipPath><clipPath id="470dc372b1"><path d="M 176 121.042969 L 199 121.042969 L 199 139 L 176 139 Z M 176 121.042969 " clip-rule="nonzero"/></clipPath><clipPath id="2773e2546b"><path d="M 176 260 L 199 260 L 199 278.542969 L 176 278.542969 Z M 176 260 " clip-rule="nonzero"/></clipPath><clipPath id="f81c59c182"><path d="M 108.828125 121.042969 L 180 121.042969 L 180 278.542969 L 108.828125 278.542969 Z M 108.828125 121.042969 " clip-rule="nonzero"/></clipPath><clipPath id="f404da29e2"><path d="M 196 121.042969 L 266.328125 121.042969 L 266.328125 278.542969 L 196 278.542969 Z M 196 121.042969 " clip-rule="nonzero"/></clipPath></defs><g clip-path="url(#b40d4d9c65)"><path fill="#edf2f5" d="M 172.808594 149.109375 L 202.617188 149.109375 L 202.617188 248.476562 L 172.808594 248.476562 Z M 172.808594 149.109375 " fill-opacity="1" fill-rule="nonzero"/></g><path fill="#3871c1" d="M 172.675781 149.660156 L 172.675781 162.417969 L 186.476562 149.660156 Z M 172.675781 149.660156 " fill-opacity="1" fill-rule="nonzero"/><path fill="#ed1d24" d="M 172.675781 178.441406 L 172.675781 191.199219 L 202.492188 163.628906 L 202.492188 150.871094 L 172.675781 178.441406 " fill-opacity="1" fill-rule="nonzero"/><path fill="#3871c1" d="M 202.492188 249.972656 L 202.492188 237.214844 L 188.691406 249.972656 Z M 202.492188 249.972656 " fill-opacity="1" fill-rule="nonzero"/><path fill="#3871c1" d="M 172.675781 219.980469 L 202.492188 192.410156 L 202.492188 179.652344 L 172.675781 207.21875 L 172.675781 219.980469 " fill-opacity="1" fill-rule="nonzero"/><path fill="#ed1d24" d="M 172.675781 248.761719 L 202.492188 221.191406 L 202.492188 208.433594 L 172.675781 236.003906 L 172.675781 248.761719 " fill-opacity="1" fill-rule="nonzero"/><g clip-path="url(#470dc372b1)"><path fill="#ffffff" d="M 185.441406 123.9375 C 184.992188 124.140625 184.554688 124.375 184.140625 124.632812 C 184.019531 124.707031 183.886719 124.742188 183.753906 124.742188 C 183.507812 124.742188 183.269531 124.621094 183.132812 124.398438 C 182.917969 124.054688 183.019531 123.601562 183.363281 123.390625 C 183.832031 123.09375 184.332031 122.828125 184.84375 122.597656 C 185.210938 122.433594 185.644531 122.597656 185.8125 122.96875 C 185.976562 123.339844 185.8125 123.773438 185.441406 123.9375 Z M 182.003906 126.417969 C 180.507812 128.074219 179.71875 130.074219 179.71875 132.203125 C 179.71875 133.53125 180.027344 134.8125 180.640625 136.011719 C 180.824219 136.375 180.679688 136.816406 180.320312 137 C 180.214844 137.054688 180.101562 137.078125 179.988281 137.078125 C 179.722656 137.078125 179.464844 136.933594 179.332031 136.679688 C 178.617188 135.269531 178.25 133.761719 178.25 132.203125 C 178.25 129.742188 179.199219 127.335938 180.914062 125.433594 C 181.1875 125.132812 181.648438 125.109375 181.953125 125.382812 C 182.253906 125.652344 182.277344 126.117188 182.003906 126.417969 Z M 187.585938 121.050781 C 181.429688 121.050781 176.441406 126.039062 176.441406 132.195312 C 176.441406 134.703125 177.269531 137.015625 178.667969 138.878906 L 196.503906 138.878906 C 197.898438 137.015625 198.730469 134.703125 198.730469 132.195312 C 198.730469 126.039062 193.738281 121.050781 187.585938 121.050781 " fill-opacity="1" fill-rule="nonzero"/></g><path fill="#ffffff" d="M 202.816406 148.054688 L 172.355469 148.054688 C 171.636719 148.054688 171.054688 147.472656 171.054688 146.753906 C 171.054688 146.039062 171.636719 145.457031 172.355469 145.457031 L 202.816406 145.457031 C 203.53125 145.457031 204.113281 146.039062 204.113281 146.753906 C 204.113281 147.472656 203.53125 148.054688 202.816406 148.054688 " fill-opacity="1" fill-rule="nonzero"/><path fill="#ffffff" d="M 176.441406 143.835938 L 179.574219 140.414062 L 181.292969 140.414062 Z M 196.1875 139.675781 L 178.984375 139.675781 L 174.089844 144.566406 L 201.078125 144.566406 L 196.1875 139.675781 " fill-opacity="1" fill-rule="nonzero"/><g clip-path="url(#2773e2546b)"><path fill="#ffffff" d="M 185.8125 276.636719 C 185.644531 277.003906 185.210938 277.171875 184.84375 277.003906 C 184.332031 276.773438 183.832031 276.507812 183.363281 276.214844 C 183.019531 276 182.917969 275.546875 183.132812 275.203125 C 183.269531 274.984375 183.507812 274.859375 183.753906 274.859375 C 183.886719 274.859375 184.019531 274.898438 184.140625 274.972656 C 184.554688 275.230469 184.992188 275.464844 185.441406 275.664062 C 185.8125 275.832031 185.976562 276.265625 185.8125 276.636719 Z M 181.953125 274.222656 C 181.648438 274.492188 181.1875 274.46875 180.914062 274.167969 C 179.199219 272.265625 178.25 269.863281 178.25 267.402344 C 178.25 265.839844 178.617188 264.332031 179.332031 262.925781 C 179.464844 262.671875 179.722656 262.523438 179.988281 262.523438 C 180.101562 262.523438 180.214844 262.550781 180.320312 262.605469 C 180.679688 262.789062 180.824219 263.230469 180.640625 263.589844 C 180.027344 264.792969 179.71875 266.074219 179.71875 267.402344 C 179.71875 269.527344 180.507812 271.527344 182.003906 273.1875 C 182.277344 273.488281 182.253906 273.953125 181.953125 274.222656 Z M 198.730469 267.410156 C 198.730469 264.902344 197.898438 262.585938 196.503906 260.726562 L 178.667969 260.726562 C 177.269531 262.585938 176.441406 264.902344 176.441406 267.410156 C 176.441406 273.5625 181.429688 278.554688 187.585938 278.554688 C 193.738281 278.554688 198.730469 273.5625 198.730469 267.410156 " fill-opacity="1" fill-rule="nonzero"/></g><path fill="#ffffff" d="M 202.816406 251.550781 L 172.355469 251.550781 C 171.636719 251.550781 171.054688 252.128906 171.054688 252.847656 C 171.054688 253.566406 171.636719 254.148438 172.355469 254.148438 L 202.816406 254.148438 C 203.53125 254.148438 204.113281 253.566406 204.113281 252.847656 C 204.113281 252.128906 203.53125 251.550781 202.816406 251.550781 " fill-opacity="1" fill-rule="nonzero"/><path fill="#3871c1" d="M 200.757812 263.847656 C 201.066406 264.996094 201.226562 266.1875 201.226562 267.410156 C 201.226562 267.625 201.21875 267.839844 201.210938 268.054688 C 233.117188 261.71875 257.167969 233.570312 257.167969 199.800781 C 257.167969 166.035156 233.117188 137.886719 201.210938 131.550781 C 201.21875 131.765625 201.226562 131.980469 201.226562 132.195312 C 201.226562 133.414062 201.066406 134.609375 200.757812 135.757812 C 230.546875 141.851562 252.957031 168.210938 252.957031 199.800781 C 252.957031 231.394531 230.546875 257.75 200.757812 263.847656 " fill-opacity="1" fill-rule="nonzero"/><path fill="#3871c1" d="M 174.414062 135.757812 C 174.101562 134.609375 173.941406 133.414062 173.941406 132.195312 C 173.941406 131.980469 173.949219 131.765625 173.957031 131.550781 C 142.050781 137.886719 117.996094 166.035156 117.996094 199.800781 C 117.996094 233.570312 142.050781 261.71875 173.957031 268.054688 C 173.949219 267.839844 173.941406 267.625 173.941406 267.410156 C 173.941406 266.1875 174.101562 264.996094 174.414062 263.847656 C 144.621094 257.75 122.214844 231.394531 122.214844 199.800781 C 122.214844 168.210938 144.621094 141.851562 174.414062 135.757812 " fill-opacity="1" fill-rule="nonzero"/><g clip-path="url(#f81c59c182)"><path fill="#ed1d24" d="M 175.019531 272.71875 C 140.144531 266.753906 113.601562 236.378906 113.601562 199.800781 C 113.601562 163.226562 140.144531 132.851562 175.019531 126.882812 C 175.917969 124.761719 177.339844 122.914062 179.125 121.5 C 139.609375 125.722656 108.832031 159.167969 108.832031 199.800781 C 108.832031 240.4375 139.609375 273.882812 179.125 278.105469 C 177.339844 276.691406 175.917969 274.839844 175.019531 272.71875 " fill-opacity="1" fill-rule="nonzero"/></g><g clip-path="url(#f404da29e2)"><path fill="#ed1d24" d="M 196.042969 121.5 C 197.828125 122.914062 199.25 124.761719 200.152344 126.882812 C 235.023438 132.851562 261.566406 163.226562 261.566406 199.800781 C 261.566406 236.378906 235.023438 266.753906 200.148438 272.71875 C 199.25 274.839844 197.828125 276.691406 196.042969 278.105469 C 235.558594 273.882812 266.335938 240.4375 266.335938 199.800781 C 266.335938 159.167969 235.558594 125.722656 196.042969 121.5 " fill-opacity="1" fill-rule="nonzero"/></g><path fill="#ffffff" d="M 181.292969 259.191406 L 179.574219 259.191406 L 176.441406 255.765625 Z M 201.078125 255.035156 L 174.089844 255.035156 L 178.984375 259.925781 L 196.1875 259.925781 L 201.078125 255.035156 " fill-opacity="1" fill-rule="nonzero"/><path fill="#ffffff" d="M 151.769531 202.617188 L 153.296875 202.617188 L 153.296875 202.113281 L 151.769531 202.113281 Z M 144.609375 224.238281 C 143.640625 226.308594 141.503906 227.359375 139.84375 226.585938 C 138.183594 225.808594 137.621094 223.492188 138.589844 221.421875 C 139.558594 219.351562 141.695312 218.300781 143.355469 219.078125 C 145.015625 219.851562 145.578125 222.167969 144.609375 224.238281 Z M 151.15625 206.101562 C 151.125 206.078125 151.074219 206.042969 151.015625 206.003906 C 150.683594 205.785156 150.460938 205.625 150.382812 205.382812 C 150.378906 205.363281 150.089844 204.464844 149.613281 202.960938 L 145.382812 211.984375 C 145.378906 211.984375 144.5625 213.726562 143.816406 215.328125 C 143.296875 216.433594 142.308594 217.257812 141.121094 217.546875 C 139.570312 217.929688 138.117188 219.105469 137.3125 220.824219 C 136.464844 222.644531 136.542969 224.621094 137.363281 226.082031 C 138.21875 227.605469 137.210938 229.519531 135.464844 229.566406 C 135.441406 229.570312 135.421875 229.570312 135.402344 229.570312 C 135.109375 229.574219 134.882812 229.832031 134.929688 230.132812 C 134.96875 230.375 135.199219 230.539062 135.445312 230.535156 C 135.648438 230.53125 135.839844 230.515625 136.023438 230.484375 C 137.070312 230.320312 137.796875 229.769531 138.28125 229.113281 C 138.300781 229.089844 138.316406 229.070312 138.328125 229.050781 C 138.34375 229.03125 138.355469 229.015625 138.363281 229 C 139.105469 227.96875 140.042969 228.273438 141.128906 228.242188 C 141.773438 228.222656 142.414062 228.058594 143 227.785156 C 144.277344 227.191406 145.289062 226.105469 145.882812 224.835938 C 146.695312 223.101562 146.660156 221.21875 145.941406 219.78125 C 145.335938 218.5625 145.300781 217.132812 145.941406 215.929688 C 146.414062 215.058594 146.832031 214.292969 146.902344 214.171875 C 148.132812 212.070312 149.527344 210.054688 151.140625 208.230469 C 151.492188 207.835938 151.859375 207.449219 152.234375 207.074219 C 152.121094 206.964844 152.007812 206.859375 151.894531 206.753906 C 151.644531 206.523438 151.394531 206.300781 151.15625 206.101562 Z M 153.542969 195.902344 L 164.554688 171.675781 L 155.097656 195.902344 Z M 153.851562 198.304688 L 154.628906 199.960938 L 155.433594 201.679688 C 155.496094 201.484375 155.5625 201.28125 155.625 201.074219 C 158.644531 191.609375 165.765625 169.28125 165.765625 169.28125 C 165.816406 169.121094 165.636719 169.023438 165.523438 169.09375 C 165.5 169.109375 165.476562 169.128906 165.460938 169.160156 L 152.824219 196.113281 Z M 165.289062 226.585938 C 163.628906 227.359375 161.488281 226.308594 160.523438 224.238281 C 159.554688 222.167969 160.117188 219.851562 161.773438 219.078125 C 163.433594 218.300781 165.574219 219.351562 166.539062 221.421875 C 167.507812 223.492188 166.945312 225.808594 165.289062 226.585938 Z M 153.082031 203.535156 C 152.433594 203.835938 151.667969 203.558594 151.363281 202.910156 C 151.0625 202.265625 151.339844 201.5 151.984375 201.195312 C 152.632812 200.894531 153.402344 201.171875 153.703125 201.816406 C 154.003906 202.464844 153.726562 203.234375 153.082031 203.535156 Z M 150.042969 195.902344 L 140.582031 171.675781 L 151.597656 195.902344 Z M 167.816406 220.824219 C 167.011719 219.105469 165.558594 217.929688 164.007812 217.546875 C 162.820312 217.257812 161.832031 216.433594 161.316406 215.328125 C 160.566406 213.726562 159.75 211.984375 159.75 211.984375 L 154.203125 200.160156 L 154.203125 200.15625 L 154.203125 200.160156 L 139.667969 169.160156 C 139.652344 169.128906 139.632812 169.109375 139.605469 169.09375 C 139.492188 169.023438 139.316406 169.121094 139.367188 169.28125 C 139.367188 169.28125 140.019531 171.324219 141.011719 174.4375 C 144.179688 184.382812 150.832031 205.238281 150.832031 205.238281 C 150.878906 205.386719 151.335938 205.636719 151.457031 205.742188 C 151.714844 205.957031 151.96875 206.179688 152.214844 206.410156 C 152.835938 206.984375 153.425781 207.597656 153.988281 208.230469 C 155.601562 210.054688 156.996094 212.070312 158.226562 214.171875 C 158.296875 214.292969 158.71875 215.058594 159.1875 215.929688 C 159.832031 217.132812 159.796875 218.5625 159.1875 219.78125 C 158.46875 221.21875 158.433594 223.101562 159.246094 224.835938 C 159.277344 224.898438 159.308594 224.960938 159.339844 225.023438 L 159.078125 225.210938 C 158.925781 225.316406 158.890625 225.527344 159 225.679688 L 159.632812 226.566406 C 159.738281 226.71875 159.949219 226.753906 160.097656 226.644531 L 160.34375 226.472656 C 161.84375 228.089844 164.050781 228.71875 165.882812 227.863281 C 168.246094 226.753906 169.113281 223.597656 167.816406 220.824219 " fill-opacity="1" fill-rule="nonzero"/><path fill="#ffffff" d="M 226.625 168.476562 C 226.660156 168.5 226.695312 168.519531 226.734375 168.539062 C 228.578125 169.660156 228.972656 171.730469 228.960938 173.710938 C 228.957031 175.0625 228.949219 176.410156 228.941406 177.757812 C 228.933594 179.863281 228.921875 181.96875 228.914062 184.074219 C 228.898438 186.683594 228.886719 189.289062 228.871094 191.894531 C 228.859375 194.75 228.84375 197.605469 228.828125 200.460938 C 228.816406 203.308594 228.800781 206.15625 228.789062 209.003906 C 228.773438 211.589844 228.761719 214.175781 228.75 216.761719 C 228.738281 218.832031 228.730469 220.902344 228.71875 222.96875 C 228.710938 224.269531 228.707031 225.566406 228.699219 226.867188 C 228.699219 227.179688 228.695312 227.496094 228.695312 227.8125 C 228.683594 230.328125 226.414062 232.304688 223.945312 231.832031 C 223.859375 231.816406 223.777344 231.796875 223.691406 231.777344 C 223.585938 231.75 223.480469 231.722656 223.375 231.6875 C 223.355469 231.683594 223.335938 231.675781 223.316406 231.671875 C 221.203125 231.007812 220.136719 228.640625 220.984375 226.59375 C 222.222656 223.609375 222.851562 220.179688 223.167969 217.574219 C 223.625 213.8125 223.761719 209.960938 223.1875 206.207031 C 222.726562 203.171875 221.949219 198.613281 218.324219 197.957031 C 218.324219 197.957031 216.433594 197.625 214.789062 197.335938 C 214.589844 197.300781 214.445312 197.128906 214.445312 196.925781 L 214.449219 196.875 C 214.449219 196.652344 214.628906 196.46875 214.855469 196.464844 L 222.992188 196.324219 C 223.585938 196.3125 223.589844 195.886719 222.992188 195.871094 L 214.855469 195.648438 C 214.632812 195.644531 214.457031 195.460938 214.457031 195.234375 C 214.457031 195.011719 214.636719 194.828125 214.863281 194.824219 L 223 194.683594 C 223.59375 194.671875 223.597656 194.246094 223 194.230469 L 214.863281 194.007812 C 214.640625 194.003906 214.464844 193.816406 214.464844 193.59375 C 214.464844 193.371094 214.644531 193.1875 214.871094 193.183594 L 223.007812 193.042969 C 223.601562 193.03125 223.605469 192.609375 223.007812 192.589844 L 214.871094 192.367188 C 214.648438 192.363281 214.472656 192.175781 214.472656 191.953125 C 214.472656 191.730469 214.652344 191.546875 214.878906 191.542969 L 223.015625 191.398438 C 223.613281 191.390625 223.613281 190.964844 223.015625 190.949219 L 214.882812 190.726562 C 214.65625 190.71875 214.480469 190.535156 214.480469 190.3125 C 214.480469 190.089844 214.660156 189.90625 214.886719 189.902344 L 223.023438 189.757812 C 223.621094 189.75 223.621094 189.324219 223.027344 189.308594 L 214.890625 189.085938 C 214.667969 189.078125 214.488281 188.894531 214.488281 188.671875 C 214.488281 188.449219 214.671875 188.265625 214.894531 188.261719 L 223.03125 188.117188 C 223.628906 188.105469 223.628906 187.683594 223.035156 187.667969 L 214.898438 187.445312 C 214.675781 187.4375 214.496094 187.253906 214.496094 187.03125 C 214.5 186.808594 214.675781 186.625 214.902344 186.621094 L 223.039062 186.476562 C 223.636719 186.464844 223.636719 186.042969 223.042969 186.027344 L 214.90625 185.804688 C 214.683594 185.796875 214.503906 185.613281 214.503906 185.390625 C 214.507812 185.164062 214.683594 184.984375 214.910156 184.976562 L 223.046875 184.835938 C 223.644531 184.824219 223.644531 184.402344 223.050781 184.386719 L 214.914062 184.160156 C 214.691406 184.15625 214.511719 183.972656 214.515625 183.75 C 214.515625 183.523438 214.695312 183.34375 214.917969 183.335938 L 223.058594 183.195312 C 223.652344 183.183594 223.65625 182.761719 223.058594 182.746094 L 214.921875 182.523438 C 214.699219 182.515625 214.519531 182.332031 214.523438 182.109375 C 214.523438 181.882812 214.703125 181.703125 214.925781 181.695312 L 223.066406 181.554688 C 223.660156 181.542969 223.664062 181.121094 223.066406 181.105469 L 214.929688 180.878906 C 214.707031 180.875 214.527344 180.691406 214.53125 180.46875 C 214.53125 180.242188 214.710938 180.058594 214.933594 180.054688 L 223.074219 179.914062 C 223.667969 179.902344 223.671875 179.480469 223.074219 179.464844 L 214.9375 179.242188 C 214.714844 179.234375 214.535156 179.050781 214.539062 178.824219 C 214.539062 178.601562 214.71875 178.417969 214.941406 178.414062 L 223.082031 178.273438 C 223.675781 178.261719 223.679688 177.839844 223.082031 177.820312 L 214.945312 177.597656 C 214.722656 177.59375 214.542969 177.410156 214.546875 177.183594 C 214.546875 176.960938 214.726562 176.777344 214.949219 176.773438 L 223.089844 176.632812 C 223.6875 176.621094 223.6875 176.195312 223.09375 176.179688 L 214.957031 175.957031 C 214.730469 175.953125 214.550781 175.769531 214.554688 175.542969 C 214.554688 175.320312 214.734375 175.136719 214.957031 175.132812 L 223.097656 174.992188 C 223.695312 174.980469 223.695312 174.554688 223.097656 174.539062 L 214.964844 174.316406 C 214.738281 174.3125 214.5625 174.128906 214.5625 173.902344 C 214.5625 173.675781 214.742188 173.496094 214.964844 173.492188 L 223.105469 173.351562 C 223.703125 173.339844 223.703125 172.914062 223.109375 172.898438 L 214.972656 172.675781 C 214.746094 172.667969 214.570312 172.484375 214.570312 172.261719 C 214.570312 172.035156 214.75 171.855469 214.976562 171.851562 L 223.113281 171.707031 C 223.710938 171.699219 223.710938 171.273438 223.117188 171.257812 L 214.980469 171.035156 C 214.753906 171.027344 214.578125 170.84375 214.578125 170.621094 C 214.578125 170.394531 214.757812 170.214844 214.984375 170.210938 L 223.121094 170.066406 C 223.71875 170.058594 223.71875 169.632812 223.125 169.617188 L 214.582031 169.382812 C 214.585938 168.890625 214.957031 168.476562 215.445312 168.425781 C 217.4375 168.210938 221.03125 167.898438 223.089844 167.722656 C 224.285156 167.621094 225.464844 167.867188 226.488281 168.402344 C 226.535156 168.425781 226.582031 168.453125 226.625 168.476562 " fill-opacity="1" fill-rule="nonzero"/><g fill="#ffffff" fill-opacity="1"><g transform="translate(112.963906, 137.992587)"><g><path d="M 0.921875 -16.09375 C 0.890625 -16.050781 0.890625 -16.015625 0.921875 -15.984375 C 0.960938 -15.953125 1.015625 -15.945312 1.078125 -15.96875 C 2.816406 -16.6875 4.460938 -16.375 6.015625 -15.03125 C 7.328125 -13.894531 7.929688 -12.59375 7.828125 -11.125 C 7.734375 -9.65625 7.0625 -8.195312 5.8125 -6.75 L 1.359375 -1.578125 C 1.171875 -1.359375 0.960938 -1.347656 0.734375 -1.546875 L -12.796875 -13.21875 C -13.023438 -13.414062 -13.046875 -13.625 -12.859375 -13.84375 L -8.546875 -18.84375 C -5.773438 -22.050781 -3.085938 -22.53125 -0.484375 -20.28125 C 0.878906 -19.101562 1.347656 -17.707031 0.921875 -16.09375 Z M -8.125 -14.359375 C -8.1875 -14.285156 -8.175781 -14.210938 -8.09375 -14.140625 L -4.96875 -11.4375 C -4.882812 -11.375 -4.8125 -11.378906 -4.75 -11.453125 L -2.71875 -13.8125 C -2.164062 -14.445312 -1.890625 -15.070312 -1.890625 -15.6875 C -1.890625 -16.300781 -2.144531 -16.828125 -2.65625 -17.265625 C -3.1875 -17.722656 -3.753906 -17.90625 -4.359375 -17.8125 C -4.960938 -17.71875 -5.539062 -17.351562 -6.09375 -16.71875 Z M 3.34375 -8.875 C 3.882812 -9.5 4.144531 -10.125 4.125 -10.75 C 4.101562 -11.375 3.816406 -11.929688 3.265625 -12.421875 C 2.710938 -12.890625 2.125 -13.085938 1.5 -13.015625 C 0.875 -12.941406 0.285156 -12.582031 -0.265625 -11.9375 L -2.421875 -9.4375 C -2.484375 -9.363281 -2.46875 -9.289062 -2.375 -9.21875 L 0.9375 -6.359375 C 1.03125 -6.273438 1.109375 -6.269531 1.171875 -6.34375 Z M 3.34375 -8.875 "/></g></g></g><g fill="#ffffff" fill-opacity="1"><g transform="translate(124.404528, 124.743375)"><g><path d="M 10.828125 -8.40625 C 10.628906 -8.25 10.414062 -8.242188 10.1875 -8.390625 L 8.0625 -9.90625 C 8 -9.96875 7.929688 -9.96875 7.859375 -9.90625 L 2.671875 -5.890625 C 2.597656 -5.828125 2.578125 -5.753906 2.609375 -5.671875 L 3.546875 -3.234375 C 3.640625 -2.984375 3.585938 -2.785156 3.390625 -2.640625 L 0.9375 -0.734375 C 0.800781 -0.628906 0.671875 -0.59375 0.546875 -0.625 C 0.429688 -0.65625 0.359375 -0.75 0.328125 -0.90625 L -6.15625 -18.53125 C -6.226562 -18.78125 -6.164062 -18.984375 -5.96875 -19.140625 L -2.859375 -21.5625 C -2.660156 -21.707031 -2.453125 -21.710938 -2.234375 -21.578125 L 13.265625 -10.953125 C 13.296875 -10.929688 13.335938 -10.890625 13.390625 -10.828125 C 13.453125 -10.742188 13.472656 -10.65625 13.453125 -10.5625 C 13.441406 -10.476562 13.390625 -10.398438 13.296875 -10.328125 Z M 1.390625 -8.8125 C 1.441406 -8.695312 1.507812 -8.671875 1.59375 -8.734375 L 5.34375 -11.65625 C 5.425781 -11.71875 5.425781 -11.796875 5.34375 -11.890625 L -1.578125 -16.875 C -1.648438 -16.914062 -1.703125 -16.921875 -1.734375 -16.890625 C -1.765625 -16.867188 -1.769531 -16.816406 -1.75 -16.734375 Z M 1.390625 -8.8125 "/></g></g></g><g fill="#ffffff" fill-opacity="1"><g transform="translate(139.401362, 113.299541)"><g><path d="M 10.78125 -5.375 C 10.570312 -5.269531 10.363281 -5.296875 10.15625 -5.453125 L 3.9375 -10.5 C 3.863281 -10.570312 3.785156 -10.585938 3.703125 -10.546875 L 1.53125 -9.453125 C 1.4375 -9.410156 1.410156 -9.34375 1.453125 -9.25 L 4.65625 -2.828125 C 4.789062 -2.554688 4.722656 -2.351562 4.453125 -2.21875 L 1.875 -0.9375 C 1.601562 -0.800781 1.398438 -0.867188 1.265625 -1.140625 L -6.71875 -17.15625 C -6.851562 -17.4375 -6.785156 -17.644531 -6.515625 -17.78125 L 0.21875 -21.140625 C 1.25 -21.648438 2.257812 -21.882812 3.25 -21.84375 C 4.238281 -21.800781 5.132812 -21.5 5.9375 -20.9375 C 6.75 -20.382812 7.40625 -19.613281 7.90625 -18.625 C 8.445312 -17.539062 8.640625 -16.46875 8.484375 -15.40625 C 8.328125 -14.351562 7.847656 -13.425781 7.046875 -12.625 C 7.003906 -12.582031 6.984375 -12.535156 6.984375 -12.484375 C 6.992188 -12.441406 7.019531 -12.414062 7.0625 -12.40625 L 13.546875 -7.34375 C 13.628906 -7.300781 13.691406 -7.242188 13.734375 -7.171875 C 13.773438 -7.085938 13.769531 -7.003906 13.71875 -6.921875 C 13.675781 -6.847656 13.601562 -6.78125 13.5 -6.71875 Z M -1.921875 -16.390625 C -2.015625 -16.347656 -2.039062 -16.28125 -2 -16.1875 L 0.015625 -12.140625 C 0.0546875 -12.046875 0.125 -12.019531 0.21875 -12.0625 L 3.328125 -13.625 C 4.003906 -13.957031 4.457031 -14.421875 4.6875 -15.015625 C 4.914062 -15.617188 4.867188 -16.242188 4.546875 -16.890625 C 4.222656 -17.535156 3.75 -17.957031 3.125 -18.15625 C 2.507812 -18.351562 1.863281 -18.285156 1.1875 -17.953125 Z M -1.921875 -16.390625 "/></g></g></g><g fill="#ffffff" fill-opacity="1"><g transform="translate(155.012315, 105.610878)"><g><path d="M 9.703125 -12.875 C 9.648438 -12.851562 9.628906 -12.816406 9.640625 -12.765625 C 9.660156 -12.722656 9.695312 -12.695312 9.75 -12.6875 C 11.59375 -12.320312 12.789062 -11.148438 13.34375 -9.171875 C 13.800781 -7.492188 13.582031 -6.070312 12.6875 -4.90625 C 11.789062 -3.738281 10.421875 -2.898438 8.578125 -2.390625 L 2.015625 -0.5625 C 1.722656 -0.476562 1.535156 -0.582031 1.453125 -0.875 L -3.328125 -18.09375 C -3.410156 -18.382812 -3.304688 -18.570312 -3.015625 -18.65625 L 3.34375 -20.421875 C 7.425781 -21.554688 9.929688 -20.46875 10.859375 -17.15625 C 11.335938 -15.414062 10.953125 -13.988281 9.703125 -12.875 Z M 1.21875 -16.46875 C 1.113281 -16.4375 1.078125 -16.367188 1.109375 -16.265625 L 2.21875 -12.28125 C 2.238281 -12.175781 2.300781 -12.140625 2.40625 -12.171875 L 5.40625 -13 C 6.21875 -13.226562 6.796875 -13.59375 7.140625 -14.09375 C 7.484375 -14.59375 7.5625 -15.171875 7.375 -15.828125 C 7.195312 -16.503906 6.828125 -16.972656 6.265625 -17.234375 C 5.710938 -17.503906 5.03125 -17.523438 4.21875 -17.296875 Z M 7.703125 -5.53125 C 8.492188 -5.75 9.054688 -6.125 9.390625 -6.65625 C 9.722656 -7.1875 9.789062 -7.8125 9.59375 -8.53125 C 9.40625 -9.226562 9.03125 -9.71875 8.46875 -10 C 7.90625 -10.28125 7.21875 -10.304688 6.40625 -10.078125 L 3.234375 -9.203125 C 3.128906 -9.171875 3.09375 -9.101562 3.125 -9 L 4.296875 -4.765625 C 4.328125 -4.648438 4.394531 -4.609375 4.5 -4.640625 Z M 7.703125 -5.53125 "/></g></g></g><g fill="#ffffff" fill-opacity="1"><g transform="translate(171.998374, 101.031261)"><g><path d="M 13.296875 -17.140625 C 13.316406 -16.847656 13.175781 -16.691406 12.875 -16.671875 L 4.265625 -15.953125 C 4.160156 -15.941406 4.113281 -15.882812 4.125 -15.78125 L 4.46875 -11.671875 C 4.476562 -11.578125 4.535156 -11.535156 4.640625 -11.546875 L 10.21875 -12.015625 C 10.519531 -12.035156 10.679688 -11.894531 10.703125 -11.59375 L 10.90625 -9.25 C 10.925781 -8.945312 10.785156 -8.785156 10.484375 -8.765625 L 4.90625 -8.296875 C 4.800781 -8.285156 4.753906 -8.226562 4.765625 -8.125 L 5.125 -3.84375 C 5.132812 -3.738281 5.191406 -3.691406 5.296875 -3.703125 L 13.90625 -4.421875 C 14.207031 -4.441406 14.367188 -4.300781 14.390625 -4 L 14.59375 -1.671875 C 14.613281 -1.367188 14.472656 -1.207031 14.171875 -1.1875 L 2.09375 -0.171875 C 1.789062 -0.148438 1.628906 -0.289062 1.609375 -0.59375 L 0.109375 -18.40625 C 0.0859375 -18.707031 0.226562 -18.867188 0.53125 -18.890625 L 12.609375 -19.90625 C 12.910156 -19.925781 13.070312 -19.785156 13.09375 -19.484375 Z M 13.296875 -17.140625 "/></g></g></g><g fill="#ffffff" fill-opacity="1"><g transform="translate(188.585529, 99.693641)"><g><path d="M 11.984375 1.234375 C 11.753906 1.210938 11.585938 1.082031 11.484375 0.84375 L 8.9375 -6.75 C 8.914062 -6.84375 8.859375 -6.894531 8.765625 -6.90625 L 6.34375 -7.15625 C 6.238281 -7.164062 6.179688 -7.117188 6.171875 -7.015625 L 5.4375 0.109375 C 5.40625 0.410156 5.238281 0.546875 4.9375 0.515625 L 2.078125 0.21875 C 1.773438 0.1875 1.640625 0.0195312 1.671875 -0.28125 L 3.515625 -18.078125 C 3.546875 -18.390625 3.710938 -18.53125 4.015625 -18.5 L 11.515625 -17.734375 C 12.648438 -17.609375 13.625 -17.265625 14.4375 -16.703125 C 15.25 -16.140625 15.847656 -15.40625 16.234375 -14.5 C 16.617188 -13.601562 16.753906 -12.601562 16.640625 -11.5 C 16.515625 -10.289062 16.101562 -9.28125 15.40625 -8.46875 C 14.707031 -7.65625 13.8125 -7.128906 12.71875 -6.890625 C 12.65625 -6.867188 12.613281 -6.835938 12.59375 -6.796875 C 12.570312 -6.753906 12.578125 -6.710938 12.609375 -6.671875 L 15.375 1.046875 C 15.425781 1.128906 15.445312 1.210938 15.4375 1.296875 C 15.425781 1.390625 15.378906 1.457031 15.296875 1.5 C 15.222656 1.539062 15.125 1.554688 15 1.546875 Z M 7.140625 -14.875 C 7.035156 -14.882812 6.976562 -14.835938 6.96875 -14.734375 L 6.5 -10.234375 C 6.488281 -10.128906 6.535156 -10.070312 6.640625 -10.0625 L 10.109375 -9.703125 C 10.859375 -9.628906 11.488281 -9.785156 12 -10.171875 C 12.519531 -10.566406 12.816406 -11.125 12.890625 -11.84375 C 12.960938 -12.550781 12.785156 -13.15625 12.359375 -13.65625 C 11.941406 -14.15625 11.359375 -14.441406 10.609375 -14.515625 Z M 7.140625 -14.875 "/></g></g></g><g fill="#ffffff" fill-opacity="1"><g transform="translate(205.911777, 101.599866)"><g><path d="M 7.609375 2.5 C 6.265625 2.09375 5.15625 1.515625 4.28125 0.765625 C 3.40625 0.015625 2.8125 -0.835938 2.5 -1.796875 C 2.1875 -2.765625 2.191406 -3.789062 2.515625 -4.875 L 2.640625 -5.296875 C 2.722656 -5.585938 2.910156 -5.691406 3.203125 -5.609375 L 5.90625 -4.796875 C 6.195312 -4.710938 6.3125 -4.5625 6.25 -4.34375 L 6.140625 -3.984375 C 5.929688 -3.296875 6.070312 -2.625 6.5625 -1.96875 C 7.050781 -1.3125 7.804688 -0.832031 8.828125 -0.53125 C 9.734375 -0.257812 10.457031 -0.25 11 -0.5 C 11.550781 -0.757812 11.910156 -1.171875 12.078125 -1.734375 C 12.203125 -2.148438 12.171875 -2.539062 11.984375 -2.90625 C 11.796875 -3.269531 11.5 -3.625 11.09375 -3.96875 C 10.6875 -4.320312 10.03125 -4.847656 9.125 -5.546875 C 8.082031 -6.273438 7.226562 -6.960938 6.5625 -7.609375 C 5.894531 -8.253906 5.394531 -9.015625 5.0625 -9.890625 C 4.726562 -10.773438 4.71875 -11.738281 5.03125 -12.78125 C 5.332031 -13.8125 5.859375 -14.628906 6.609375 -15.234375 C 7.367188 -15.847656 8.285156 -16.21875 9.359375 -16.34375 C 10.441406 -16.476562 11.59375 -16.363281 12.8125 -16 C 14.113281 -15.613281 15.207031 -15.035156 16.09375 -14.265625 C 16.988281 -13.492188 17.597656 -12.601562 17.921875 -11.59375 C 18.242188 -10.59375 18.238281 -9.546875 17.90625 -8.453125 L 17.828125 -8.1875 C 17.742188 -7.894531 17.5625 -7.789062 17.28125 -7.875 L 14.578125 -8.6875 C 14.285156 -8.769531 14.164062 -8.898438 14.21875 -9.078125 L 14.296875 -9.328125 C 14.515625 -10.054688 14.398438 -10.757812 13.953125 -11.4375 C 13.515625 -12.125 12.785156 -12.617188 11.765625 -12.921875 C 10.941406 -13.171875 10.253906 -13.191406 9.703125 -12.984375 C 9.148438 -12.773438 8.785156 -12.367188 8.609375 -11.765625 C 8.472656 -11.335938 8.492188 -10.9375 8.671875 -10.5625 C 8.847656 -10.195312 9.160156 -9.816406 9.609375 -9.421875 C 10.054688 -9.023438 10.773438 -8.472656 11.765625 -7.765625 C 12.828125 -6.960938 13.660156 -6.285156 14.265625 -5.734375 C 14.867188 -5.191406 15.34375 -4.492188 15.6875 -3.640625 C 16.039062 -2.796875 16.054688 -1.835938 15.734375 -0.765625 C 15.421875 0.285156 14.878906 1.125 14.109375 1.75 C 13.335938 2.375 12.394531 2.753906 11.28125 2.890625 C 10.164062 3.023438 8.941406 2.894531 7.609375 2.5 Z M 7.609375 2.5 "/></g></g></g><g fill="#ffffff" fill-opacity="1"><g transform="translate(222.025095, 106.463135)"><g><path d="M 18.765625 -10.890625 C 18.898438 -11.160156 19.109375 -11.222656 19.390625 -11.078125 L 21.921875 -9.765625 C 22.203125 -9.617188 22.273438 -9.410156 22.140625 -9.140625 L 13.875 6.703125 C 13.738281 6.972656 13.53125 7.035156 13.25 6.890625 L 10.71875 5.578125 C 10.4375 5.429688 10.363281 5.222656 10.5 4.953125 L 13.859375 -1.46875 C 13.898438 -1.5625 13.875 -1.632812 13.78125 -1.6875 L 8.578125 -4.390625 C 8.484375 -4.441406 8.414062 -4.421875 8.375 -4.328125 L 5.015625 2.09375 C 4.878906 2.363281 4.675781 2.429688 4.40625 2.296875 L 1.859375 0.96875 C 1.585938 0.820312 1.519531 0.613281 1.65625 0.34375 L 9.921875 -15.5 C 10.054688 -15.769531 10.257812 -15.832031 10.53125 -15.6875 L 13.078125 -14.359375 C 13.347656 -14.222656 13.414062 -14.019531 13.28125 -13.75 L 10.015625 -7.5 C 9.960938 -7.40625 9.984375 -7.332031 10.078125 -7.28125 L 15.28125 -4.578125 C 15.375 -4.523438 15.445312 -4.546875 15.5 -4.640625 Z M 18.765625 -10.890625 "/></g></g></g><g fill="#ffffff" fill-opacity="1"><g transform="translate(237.732484, 114.748535)"><g><path d="M 6.3125 5.421875 C 5.21875 4.546875 4.4375 3.550781 3.96875 2.4375 C 3.5 1.332031 3.351562 0.195312 3.53125 -0.96875 C 3.707031 -2.132812 4.210938 -3.242188 5.046875 -4.296875 L 8.625 -8.796875 C 9.457031 -9.828125 10.421875 -10.554688 11.515625 -10.984375 C 12.609375 -11.410156 13.742188 -11.515625 14.921875 -11.296875 C 16.109375 -11.085938 17.25 -10.546875 18.34375 -9.671875 C 19.445312 -8.785156 20.238281 -7.785156 20.71875 -6.671875 C 21.195312 -5.566406 21.351562 -4.429688 21.1875 -3.265625 C 21.019531 -2.109375 20.519531 -1.015625 19.6875 0.015625 L 16.109375 4.515625 C 15.273438 5.566406 14.300781 6.3125 13.1875 6.75 C 12.070312 7.1875 10.921875 7.296875 9.734375 7.078125 C 8.554688 6.859375 7.414062 6.304688 6.3125 5.421875 Z M 8.34375 2.875 C 9.113281 3.488281 9.929688 3.738281 10.796875 3.625 C 11.660156 3.507812 12.414062 3.046875 13.0625 2.234375 L 16.734375 -2.359375 C 17.378906 -3.179688 17.664062 -4.023438 17.59375 -4.890625 C 17.53125 -5.753906 17.109375 -6.5 16.328125 -7.125 C 15.554688 -7.738281 14.738281 -7.984375 13.875 -7.859375 C 13.007812 -7.742188 12.253906 -7.273438 11.609375 -6.453125 L 7.9375 -1.859375 C 7.289062 -1.046875 7.003906 -0.207031 7.078125 0.65625 C 7.148438 1.519531 7.570312 2.257812 8.34375 2.875 Z M 8.34375 2.875 "/></g></g></g><g fill="#ffffff" fill-opacity="1"><g transform="translate(251.420301, 125.819451)"><g><path d="M 20.390625 -5.109375 C 21.148438 -4.210938 21.640625 -3.265625 21.859375 -2.265625 C 22.078125 -1.273438 22.007812 -0.304688 21.65625 0.640625 C 21.3125 1.585938 20.703125 2.429688 19.828125 3.171875 C 18.972656 3.910156 18.050781 4.367188 17.0625 4.546875 C 16.082031 4.722656 15.113281 4.613281 14.15625 4.21875 C 13.195312 3.820312 12.328125 3.171875 11.546875 2.265625 L 9.09375 -0.609375 C 9.019531 -0.691406 8.941406 -0.695312 8.859375 -0.625 L 3.78125 3.71875 C 3.550781 3.914062 3.335938 3.898438 3.140625 3.671875 L 1.265625 1.484375 C 1.066406 1.253906 1.082031 1.039062 1.3125 0.84375 L 14.90625 -10.796875 C 15.132812 -10.992188 15.347656 -10.976562 15.546875 -10.75 Z M 13.59375 -0.015625 C 14.125 0.609375 14.726562 0.957031 15.40625 1.03125 C 16.09375 1.101562 16.726562 0.890625 17.3125 0.390625 C 17.90625 -0.117188 18.222656 -0.722656 18.265625 -1.421875 C 18.316406 -2.117188 18.078125 -2.78125 17.546875 -3.40625 L 15.34375 -5.96875 C 15.269531 -6.050781 15.191406 -6.054688 15.109375 -5.984375 L 11.40625 -2.8125 C 11.320312 -2.738281 11.316406 -2.660156 11.390625 -2.578125 Z M 13.59375 -0.015625 "/></g></g></g></svg>