<svg xmlns="http://www.w3.org/2000/svg" xmlns:xlink="http://www.w3.org/1999/xlink" width="500" zoomAndPan="magnify" viewBox="0 0 375 374.999991" height="500" preserveAspectRatio="xMidYMid meet" version="1.0"><defs><g/><clipPath id="59ad875588"><path d="M 148 313 L 227 313 L 227 337.5 L 148 337.5 Z M 148 313 " clip-rule="nonzero"/></clipPath><clipPath id="353a8960d2"><path d="M 148 313 L 226 313 L 226 337.5 L 148 337.5 Z M 148 313 " clip-rule="nonzero"/></clipPath><clipPath id="77c51abae2"><path d="M 140.0625 298 L 235.3125 298 L 235.3125 315 L 140.0625 315 Z M 140.0625 298 " clip-rule="nonzero"/></clipPath><clipPath id="d56671a984"><path d="M 140.0625 37.5 L 235.3125 37.5 L 235.3125 119 L 140.0625 119 Z M 140.0625 37.5 " clip-rule="nonzero"/></clipPath><clipPath id="6f788c754c"><path d="M 140.0625 37.5 L 235 37.5 L 235 118 L 140.0625 118 Z M 140.0625 37.5 " clip-rule="nonzero"/></clipPath><clipPath id="b72e45ca60"><path d="M 140.0625 146.550781 L 234.9375 146.550781 L 234.9375 232.628906 L 140.0625 232.628906 Z M 140.0625 146.550781 " clip-rule="nonzero"/></clipPath></defs><path fill="#ffffff" d="M 221.84375 313.398438 L 221.917969 313.574219 L 152.6875 313.515625 L 152.761719 313.339844 C 153.167969 313.757812 153.574219 314.179688 153.992188 314.597656 C 156.148438 316.746094 158.660156 318.875 163.363281 320.898438 C 168.988281 323.324219 177.75 325.59375 186.59375 325.699219 C 195.4375 325.800781 204.367188 323.734375 210.253906 321.328125 C 216.132812 318.921875 218.976562 316.179688 221.828125 313.425781 C 221.871094 313.386719 221.9375 313.386719 221.976562 313.429688 C 222.019531 313.46875 222.015625 313.535156 221.976562 313.578125 C 219.117188 316.335938 216.25 319.101562 210.332031 321.519531 C 204.421875 323.9375 195.464844 326.011719 186.589844 325.90625 C 177.714844 325.804688 168.929688 323.523438 163.28125 321.089844 C 158.546875 319.050781 156.015625 316.90625 153.847656 314.742188 C 153.425781 314.324219 153.015625 313.902344 152.609375 313.484375 C 152.582031 313.453125 152.574219 313.410156 152.589844 313.371094 C 152.605469 313.332031 152.644531 313.308594 152.6875 313.308594 L 221.917969 313.367188 C 221.960938 313.367188 222 313.390625 222.015625 313.429688 C 222.03125 313.46875 222.023438 313.515625 221.992188 313.542969 C 221.953125 313.585938 221.886719 313.585938 221.84375 313.542969 C 221.804688 313.503906 221.804688 313.4375 221.84375 313.398438 Z M 221.84375 313.398438 " fill-opacity="1" fill-rule="nonzero"/><path fill="#ffffff" d="M 192.675781 327.476562 L 192.75 327.65625 L 182.484375 327.75 L 182.585938 327.65625 C 182.4375 329 182.296875 330.304688 183.148438 331.59375 C 183.328125 331.871094 183.558594 332.148438 183.824219 332.414062 C 184.800781 333.386719 186.261719 334.171875 187.679688 334.132812 C 189.484375 334.082031 191.261719 332.699219 192.074219 331.394531 C 192.875 330.097656 192.722656 328.890625 192.566406 327.640625 C 192.558594 327.585938 192.597656 327.53125 192.65625 327.523438 C 192.714844 327.519531 192.765625 327.558594 192.773438 327.617188 C 192.929688 328.859375 193.097656 330.140625 192.25 331.503906 C 191.414062 332.851562 189.582031 334.289062 187.683594 334.339844 C 186.191406 334.382812 184.679688 333.5625 183.675781 332.558594 C 183.402344 332.285156 183.164062 332 182.972656 331.710938 C 182.074219 330.347656 182.230469 328.972656 182.378906 327.632812 C 182.386719 327.582031 182.429688 327.542969 182.480469 327.539062 L 192.75 327.445312 C 192.792969 327.445312 192.828125 327.472656 192.847656 327.511719 C 192.863281 327.550781 192.855469 327.59375 192.824219 327.625 C 192.78125 327.664062 192.714844 327.664062 192.675781 327.625 C 192.636719 327.582031 192.636719 327.519531 192.675781 327.476562 Z M 192.675781 327.476562 " fill-opacity="1" fill-rule="nonzero"/><g clip-path="url(#59ad875588)"><path fill="#ffffff" d="M 221.769531 313.324219 C 221.785156 313.316406 221.804688 313.316406 221.820312 313.320312 L 225.933594 313.941406 C 225.976562 313.949219 226.007812 313.976562 226.019531 314.011719 C 226.03125 314.050781 226.019531 314.09375 225.992188 314.121094 C 222.644531 317.328125 219.285156 320.542969 215.136719 322.867188 C 210.988281 325.191406 206.058594 326.617188 202.75 327.40625 C 199.441406 328.195312 197.753906 328.347656 196.066406 328.5 L 196.160156 328.402344 C 196.128906 329.339844 196.09375 330.289062 195.804688 331.394531 C 195.511719 332.503906 194.960938 333.777344 193.605469 335.027344 C 192.253906 336.273438 190.09375 337.503906 187.667969 337.5 C 185.246094 337.496094 182.570312 336.261719 181.082031 334.558594 C 180.476562 333.863281 180.066406 333.09375 179.773438 332.285156 C 179.351562 331.101562 179.175781 329.824219 179 328.558594 L 179.09375 328.648438 L 179.089844 328.644531 C 177.917969 328.53125 176.742188 328.410156 173.742188 327.722656 C 170.746094 327.035156 165.910156 325.773438 162.007812 324.066406 C 158.097656 322.355469 155.121094 320.195312 153.054688 318.441406 C 150.988281 316.6875 149.832031 315.332031 148.679688 313.980469 C 148.652344 313.953125 148.644531 313.910156 148.660156 313.875 C 148.675781 313.839844 148.707031 313.816406 148.746094 313.8125 L 152.765625 313.347656 C 152.820312 313.34375 152.875 313.382812 152.878906 313.441406 C 152.886719 313.496094 152.847656 313.550781 152.789062 313.554688 L 148.769531 314.015625 L 148.835938 313.847656 C 149.988281 315.195312 151.136719 316.539062 153.191406 318.28125 C 155.246094 320.027344 158.207031 322.171875 162.089844 323.875 C 165.976562 325.574219 170.792969 326.832031 173.789062 327.519531 C 176.777344 328.207031 177.945312 328.324219 179.109375 328.4375 L 179.113281 328.441406 C 179.164062 328.445312 179.203125 328.480469 179.207031 328.527344 C 179.382812 329.796875 179.554688 331.054688 179.972656 332.214844 C 180.257812 333.007812 180.652344 333.75 181.238281 334.421875 C 182.6875 336.078125 185.304688 337.289062 187.667969 337.292969 C 190.023438 337.296875 192.136719 336.097656 193.464844 334.875 C 194.785156 333.65625 195.320312 332.421875 195.601562 331.34375 C 195.886719 330.257812 195.917969 329.332031 195.953125 328.394531 C 195.953125 328.339844 195.996094 328.296875 196.046875 328.292969 C 197.730469 328.140625 199.40625 327.992188 202.703125 327.203125 C 206.003906 326.417969 210.910156 324.996094 215.035156 322.6875 C 219.15625 320.378906 222.496094 317.179688 225.847656 313.96875 L 225.902344 314.148438 L 221.789062 313.523438 L 221.839844 313.519531 C 221.785156 313.539062 221.726562 313.511719 221.707031 313.457031 C 221.6875 313.402344 221.714844 313.34375 221.769531 313.324219 Z M 221.769531 313.324219 " fill-opacity="1" fill-rule="nonzero"/></g><g clip-path="url(#353a8960d2)"><path fill="#ffffff" d="M 192.75 327.449219 C 192.789062 327.449219 192.828125 327.476562 192.84375 327.511719 C 192.859375 327.550781 192.851562 327.59375 192.820312 327.621094 C 192.808594 327.636719 192.792969 327.644531 192.777344 327.648438 L 192.777344 327.65625 L 192.773438 327.652344 C 192.929688 328.886719 193.082031 330.152344 192.246094 331.5 C 191.410156 332.847656 189.578125 334.285156 187.683594 334.335938 C 187.652344 334.339844 187.609375 334.339844 187.578125 334.339844 C 186.121094 334.339844 184.660156 333.535156 183.675781 332.558594 C 183.402344 332.285156 183.167969 331.996094 182.976562 331.707031 C 182.082031 330.351562 182.234375 328.980469 182.382812 327.644531 L 182.382812 327.632812 C 182.386719 327.582031 182.429688 327.546875 182.480469 327.542969 Z M 221.992188 313.550781 L 221.988281 313.554688 C 221.984375 313.5625 221.980469 313.566406 221.972656 313.574219 L 221.949219 313.597656 C 219.097656 316.347656 216.234375 319.105469 210.332031 321.515625 C 204.5625 323.875 195.890625 325.90625 187.230469 325.90625 C 187.019531 325.90625 186.800781 325.90625 186.589844 325.902344 C 177.714844 325.800781 168.929688 323.519531 163.28125 321.085938 C 158.546875 319.050781 156.019531 316.902344 153.847656 314.742188 C 153.453125 314.347656 153.074219 313.957031 152.695312 313.566406 L 152.691406 313.5625 L 148.964844 313.992188 L 148.960938 313.992188 L 148.964844 314 L 148.960938 313.996094 L 148.964844 314 L 148.960938 314 C 150.074219 315.296875 151.210938 316.605469 153.1875 318.285156 C 155.242188 320.03125 158.203125 322.175781 162.089844 323.878906 C 165.976562 325.578125 170.792969 326.835938 173.789062 327.523438 C 176.777344 328.210938 177.945312 328.328125 179.109375 328.441406 L 179.113281 328.445312 C 179.160156 328.449219 179.199219 328.484375 179.203125 328.53125 C 179.378906 329.800781 179.550781 331.054688 179.96875 332.214844 C 180.253906 333.007812 180.648438 333.753906 181.238281 334.421875 C 182.6875 336.082031 185.304688 337.292969 187.667969 337.296875 L 187.679688 337.296875 C 190.03125 337.296875 192.140625 336.097656 193.464844 334.875 C 194.789062 333.65625 195.320312 332.425781 195.605469 331.34375 C 195.890625 330.261719 195.921875 329.332031 195.957031 328.394531 C 195.957031 328.34375 195.996094 328.300781 196.046875 328.296875 L 196.050781 328.296875 C 197.730469 328.144531 199.410156 327.996094 202.703125 327.207031 C 206.003906 326.421875 210.914062 325 215.035156 322.6875 C 219.09375 320.414062 222.394531 317.28125 225.695312 314.121094 L 225.695312 314.113281 Z M 221.992188 313.550781 " fill-opacity="1" fill-rule="nonzero"/></g><path fill="#ffffff" d="M 153 310.679688 L 153.101562 310.828125 C 150.625 310.992188 148.109375 311.160156 146.398438 310.476562 C 146.308594 310.4375 146.21875 310.398438 146.128906 310.355469 C 144.578125 309.617188 143.769531 308.148438 143.660156 306.722656 C 143.546875 305.214844 144.214844 303.75 145.089844 302.886719 C 145.972656 302.019531 147.0625 301.765625 148.480469 301.671875 C 149.898438 301.574219 151.671875 301.628906 153.433594 301.683594 L 153.429688 301.683594 L 225.226562 301.65625 L 225.234375 301.65625 C 226.703125 301.683594 228.199219 301.710938 229.429688 302.300781 C 229.578125 302.371094 229.722656 302.449219 229.859375 302.535156 C 231.164062 303.355469 232.089844 304.960938 232.007812 306.507812 C 231.929688 308.058594 230.851562 309.527344 229.519531 310.265625 C 228.183594 311.003906 226.59375 311.011719 225.042969 311.019531 C 225.039062 311.019531 225.039062 311.019531 225.039062 311.019531 L 153.117188 310.820312 C 153.058594 310.820312 153.011719 310.773438 153.011719 310.71875 C 153.011719 310.660156 153.058594 310.613281 153.117188 310.613281 L 225.039062 310.8125 C 226.605469 310.800781 228.136719 310.792969 229.417969 310.082031 C 230.699219 309.375 231.726562 307.960938 231.800781 306.5 C 231.875 305.035156 230.996094 303.496094 229.75 302.714844 C 229.617188 302.628906 229.480469 302.554688 229.339844 302.488281 C 228.15625 301.921875 226.710938 301.894531 225.230469 301.867188 L 225.222656 301.867188 L 225.226562 301.867188 L 153.429688 301.894531 C 153.429688 301.894531 153.429688 301.894531 153.425781 301.894531 C 151.660156 301.835938 149.902344 301.78125 148.496094 301.878906 C 147.089844 301.972656 146.066406 302.222656 145.238281 303.035156 C 144.402344 303.859375 143.757812 305.265625 143.867188 306.707031 C 143.972656 308.070312 144.746094 309.464844 146.21875 310.167969 C 146.304688 310.207031 146.390625 310.246094 146.476562 310.28125 C 148.132812 310.945312 150.589844 310.785156 153.089844 310.621094 C 153.125 310.617188 153.160156 310.636719 153.183594 310.667969 C 153.203125 310.695312 153.207031 310.734375 153.191406 310.769531 C 153.164062 310.820312 153.101562 310.84375 153.050781 310.820312 C 153 310.792969 152.976562 310.730469 153 310.679688 Z M 153 310.679688 " fill-opacity="1" fill-rule="nonzero"/><path fill="#ffffff" d="M 146.1875 317.125 C 146.132812 317.140625 146.074219 317.113281 146.058594 317.058594 C 146.039062 317.003906 146.070312 316.945312 146.125 316.925781 C 146.179688 316.910156 146.238281 316.9375 146.253906 316.992188 C 146.273438 317.046875 146.242188 317.105469 146.1875 317.125 Z M 146.1875 317.125 " fill-opacity="1" fill-rule="nonzero"/><g clip-path="url(#77c51abae2)"><path fill="#ffffff" d="M 153.027344 313.527344 C 151.429688 313.816406 149.816406 314.105469 148.480469 314.160156 C 147.128906 314.210938 146.050781 314.023438 144.699219 313.1875 C 143.355469 312.355469 141.734375 310.875 140.964844 309.097656 C 140.761719 308.628906 140.621094 308.140625 140.535156 307.644531 C 140.289062 306.253906 140.484375 304.792969 141.042969 303.503906 C 141.796875 301.757812 143.210938 300.324219 144.570312 299.539062 C 145.933594 298.753906 147.238281 298.628906 148.523438 298.5 C 148.527344 298.5 148.53125 298.5 148.53125 298.5 L 212.148438 298.324219 C 217.445312 298.21875 222.753906 298.113281 226.289062 298.324219 C 229.824219 298.535156 231.625 299.066406 233.054688 300.765625 C 234 301.882812 234.78125 303.511719 235.082031 305.21875 C 235.230469 306.082031 235.261719 306.964844 235.125 307.816406 C 234.714844 310.367188 232.84375 312.625 230.527344 313.609375 C 228.214844 314.59375 225.46875 314.300781 222.757812 314.015625 C 222.699219 314.007812 222.65625 313.957031 222.664062 313.902344 C 222.671875 313.84375 222.722656 313.800781 222.777344 313.808594 C 225.503906 314.09375 228.195312 314.375 230.445312 313.417969 C 232.699219 312.460938 234.523438 310.261719 234.917969 307.785156 C 235.050781 306.957031 235.023438 306.097656 234.875 305.253906 C 234.582031 303.582031 233.816406 301.988281 232.894531 300.898438 C 231.523438 299.269531 229.800781 298.742188 226.273438 298.53125 C 222.75 298.320312 217.453125 298.425781 212.152344 298.53125 L 148.535156 298.707031 L 148.542969 298.707031 C 147.257812 298.835938 145.996094 298.960938 144.675781 299.722656 C 143.351562 300.484375 141.96875 301.882812 141.234375 303.585938 C 140.691406 304.839844 140.503906 306.257812 140.738281 307.609375 C 140.824219 308.089844 140.960938 308.5625 141.160156 309.015625 C 141.90625 310.742188 143.488281 312.191406 144.808594 313.011719 C 146.121094 313.824219 147.15625 314.003906 148.46875 313.949219 C 149.792969 313.898438 151.386719 313.609375 152.992188 313.320312 C 153.046875 313.3125 153.101562 313.347656 153.113281 313.40625 C 153.121094 313.460938 153.085938 313.515625 153.027344 313.527344 Z M 153.027344 313.527344 " fill-opacity="1" fill-rule="nonzero"/><path fill="#ffffff" d="M 150.304688 301.628906 C 151.296875 301.628906 152.367188 301.660156 153.433594 301.695312 L 153.4375 301.6875 L 153.433594 301.695312 L 225.226562 301.667969 L 225.238281 301.660156 L 225.226562 301.667969 L 225.25 301.667969 C 226.710938 301.695312 228.199219 301.722656 229.425781 302.308594 C 229.570312 302.378906 229.714844 302.457031 229.855469 302.546875 C 231.15625 303.363281 232.078125 304.964844 232 306.507812 C 231.921875 308.050781 230.84375 309.519531 229.511719 310.257812 C 228.1875 310.992188 226.605469 311 225.054688 311.007812 L 225.039062 311.007812 L 153.132812 310.8125 L 153.136719 310.8125 L 153.128906 310.8125 C 153.121094 310.816406 153.109375 310.816406 153.101562 310.816406 C 153.101562 310.816406 153.097656 310.816406 153.097656 310.816406 L 153.078125 310.820312 L 153.0625 310.820312 C 151.976562 310.890625 150.890625 310.964844 149.867188 310.964844 C 148.558594 310.964844 147.355469 310.847656 146.402344 310.464844 C 146.3125 310.429688 146.222656 310.390625 146.132812 310.347656 C 144.589844 309.609375 143.777344 308.144531 143.667969 306.722656 L 143.667969 306.71875 C 143.554688 305.214844 144.222656 303.753906 145.097656 302.894531 C 145.980469 302.027344 147.0625 301.777344 148.480469 301.679688 C 149.042969 301.640625 149.65625 301.628906 150.304688 301.628906 Z M 220.992188 298.402344 C 218.277344 298.402344 215.210938 298.460938 212.152344 298.523438 L 148.539062 298.699219 L 148.535156 298.699219 C 147.253906 298.824219 145.992188 298.953125 144.671875 299.710938 C 143.34375 300.476562 141.960938 301.878906 141.222656 303.582031 C 140.683594 304.839844 140.492188 306.257812 140.730469 307.609375 C 140.8125 308.09375 140.953125 308.566406 141.148438 309.019531 C 141.894531 310.746094 143.480469 312.199219 144.804688 313.019531 C 145.980469 313.75 146.9375 313.96875 148.074219 313.96875 C 148.199219 313.96875 148.335938 313.964844 148.472656 313.960938 C 148.535156 313.957031 148.589844 313.957031 148.65625 313.953125 L 148.660156 313.953125 L 148.667969 313.9375 C 148.660156 313.917969 148.664062 313.898438 148.671875 313.878906 C 148.683594 313.847656 148.710938 313.824219 148.746094 313.820312 L 152.59375 313.378906 L 152.601562 313.375 C 152.617188 313.339844 152.648438 313.320312 152.6875 313.320312 L 221.71875 313.375 L 221.726562 313.367188 C 221.738281 313.351562 221.753906 313.339844 221.773438 313.332031 C 221.785156 313.328125 221.792969 313.328125 221.804688 313.328125 C 221.8125 313.328125 221.816406 313.328125 221.820312 313.328125 L 225.933594 313.953125 C 225.96875 313.957031 226 313.984375 226.007812 314.015625 C 226.015625 314.035156 226.015625 314.050781 226.011719 314.066406 L 226.019531 314.082031 L 226.023438 314.082031 C 226.21875 314.085938 226.417969 314.089844 226.613281 314.089844 C 227.972656 314.089844 229.269531 313.929688 230.449219 313.425781 C 232.707031 312.46875 234.53125 310.265625 234.929688 307.789062 C 235.058594 306.957031 235.035156 306.097656 234.886719 305.253906 C 234.59375 303.578125 233.824219 301.984375 232.902344 300.890625 C 231.527344 299.261719 229.800781 298.734375 226.277344 298.523438 C 224.789062 298.433594 222.980469 298.402344 220.992188 298.402344 Z M 220.992188 298.402344 " fill-opacity="1" fill-rule="nonzero"/></g><path fill="#ffffff" d="M 152.765625 295.488281 L 152.714844 295.578125 L 152.601562 289.675781 C 152.597656 289.632812 152.625 289.59375 152.664062 289.578125 L 222.351562 259.125 C 222.382812 259.109375 222.421875 259.113281 222.449219 259.132812 C 222.480469 259.152344 222.496094 259.183594 222.496094 259.21875 L 222.492188 284.972656 C 222.492188 285.015625 222.46875 285.054688 222.429688 285.070312 L 198.035156 295.671875 C 198.023438 295.679688 198.007812 295.683594 197.996094 295.683594 L 152.832031 295.632812 C 152.773438 295.632812 152.726562 295.585938 152.726562 295.527344 C 152.726562 295.46875 152.773438 295.421875 152.832031 295.421875 L 197.996094 295.472656 L 197.953125 295.484375 L 222.347656 284.878906 L 222.285156 284.972656 L 222.289062 259.21875 L 222.433594 259.3125 L 152.746094 289.769531 L 152.808594 289.671875 L 152.925781 295.574219 C 152.925781 295.613281 152.90625 295.648438 152.875 295.667969 C 152.824219 295.695312 152.761719 295.679688 152.730469 295.632812 C 152.703125 295.582031 152.71875 295.519531 152.765625 295.488281 Z M 152.765625 295.488281 " fill-opacity="1" fill-rule="nonzero"/><path fill="#ffffff" d="M 222.1875 192.445312 L 222.394531 192.417969 L 222.523438 219.78125 C 222.523438 219.820312 222.496094 219.859375 222.460938 219.875 L 152.800781 250.261719 C 152.765625 250.277344 152.730469 250.273438 152.699219 250.253906 C 152.671875 250.234375 152.652344 250.203125 152.652344 250.167969 L 152.59375 223.070312 C 152.59375 223.03125 152.617188 222.992188 152.65625 222.976562 L 222.296875 192.710938 C 222.351562 192.6875 222.414062 192.710938 222.4375 192.765625 C 222.457031 192.816406 222.433594 192.878906 222.382812 192.902344 L 152.742188 223.167969 L 152.804688 223.070312 L 152.863281 250.167969 L 152.714844 250.070312 L 222.375 219.683594 L 222.3125 219.78125 L 222.183594 192.417969 C 222.183594 192.363281 222.222656 192.320312 222.273438 192.3125 C 222.328125 192.308594 222.375 192.339844 222.390625 192.390625 C 222.40625 192.445312 222.371094 192.503906 222.316406 192.515625 C 222.261719 192.53125 222.203125 192.5 222.1875 192.445312 Z M 222.1875 192.445312 " fill-opacity="1" fill-rule="nonzero"/><path fill="#ffffff" d="M 222.300781 122.382812 C 222.320312 122.339844 222.367188 122.316406 222.417969 122.328125 C 222.464844 122.335938 222.496094 122.378906 222.496094 122.425781 L 222.589844 153.375 C 222.589844 153.417969 222.5625 153.453125 222.527344 153.46875 L 152.660156 183.605469 C 152.628906 183.621094 152.59375 183.617188 152.5625 183.597656 C 152.53125 183.578125 152.515625 183.542969 152.515625 183.507812 L 152.5625 152.832031 C 152.5625 152.789062 152.585938 152.753906 152.625 152.738281 L 222.425781 122.507812 C 222.480469 122.484375 222.542969 122.511719 222.5625 122.5625 C 222.585938 122.617188 222.5625 122.675781 222.511719 122.699219 L 152.707031 152.925781 L 152.769531 152.832031 L 152.722656 183.511719 L 152.578125 183.414062 L 222.441406 153.28125 L 222.378906 153.375 L 222.289062 122.429688 L 222.488281 122.472656 C 222.460938 122.523438 222.398438 122.546875 222.347656 122.523438 C 222.296875 122.496094 222.273438 122.433594 222.300781 122.382812 Z M 222.300781 122.382812 " fill-opacity="1" fill-rule="nonzero"/><path fill="#ffffff" d="M 211.625 133.371094 C 211.648438 133.320312 211.707031 133.292969 211.761719 133.316406 C 211.8125 133.339844 211.839844 133.398438 211.816406 133.453125 C 211.796875 133.507812 211.734375 133.53125 211.679688 133.507812 C 211.628906 133.488281 211.601562 133.425781 211.625 133.371094 Z M 211.625 133.371094 " fill-opacity="1" fill-rule="nonzero"/><path fill="#ffffff" d="M 222.394531 122.371094 C 222.398438 122.371094 222.402344 122.371094 222.40625 122.375 C 222.429688 122.378906 222.449219 122.402344 222.449219 122.425781 L 222.449219 122.503906 C 222.449219 122.519531 222.457031 122.53125 222.464844 122.542969 C 222.472656 122.546875 222.480469 122.550781 222.492188 122.550781 L 222.488281 122.550781 C 222.503906 122.558594 222.515625 122.566406 222.519531 122.582031 C 222.53125 122.609375 222.519531 122.644531 222.492188 122.65625 L 222.480469 122.660156 C 222.460938 122.667969 222.449219 122.6875 222.449219 122.703125 L 222.539062 153.375 C 222.539062 153.398438 222.527344 153.417969 222.507812 153.425781 L 152.640625 183.5625 C 152.636719 183.5625 152.628906 183.566406 152.621094 183.566406 C 152.609375 183.566406 152.597656 183.5625 152.589844 183.554688 C 152.574219 183.546875 152.5625 183.527344 152.5625 183.511719 L 152.609375 152.832031 C 152.609375 152.808594 152.621094 152.789062 152.644531 152.78125 L 222.308594 122.613281 C 222.328125 122.605469 222.335938 122.585938 222.335938 122.570312 L 222.335938 122.441406 L 222.339844 122.441406 C 222.339844 122.441406 222.339844 122.4375 222.339844 122.4375 C 222.335938 122.425781 222.335938 122.414062 222.34375 122.40625 L 222.347656 122.382812 L 222.34375 122.402344 C 222.351562 122.382812 222.371094 122.371094 222.394531 122.371094 Z M 222.289062 192.359375 C 222.3125 192.359375 222.335938 192.378906 222.34375 192.402344 C 222.34375 192.40625 222.34375 192.410156 222.34375 192.417969 C 222.34375 192.417969 222.34375 192.421875 222.347656 192.425781 L 222.34375 192.425781 L 222.347656 192.71875 C 222.347656 192.730469 222.351562 192.746094 222.363281 192.753906 C 222.367188 192.757812 222.371094 192.761719 222.375 192.761719 C 222.382812 192.769531 222.386719 192.773438 222.390625 192.78125 C 222.402344 192.808594 222.390625 192.839844 222.367188 192.851562 C 222.351562 192.863281 222.34375 192.886719 222.347656 192.90625 L 222.472656 219.78125 C 222.472656 219.800781 222.460938 219.820312 222.441406 219.832031 L 152.78125 250.21875 C 152.773438 250.222656 152.765625 250.222656 152.757812 250.222656 C 152.746094 250.222656 152.734375 250.21875 152.726562 250.214844 C 152.710938 250.203125 152.703125 250.1875 152.703125 250.167969 L 152.644531 223.070312 C 152.644531 223.050781 152.65625 223.03125 152.675781 223.019531 L 222.207031 192.804688 C 222.222656 192.796875 222.234375 192.777344 222.234375 192.757812 L 222.234375 192.417969 C 222.234375 192.390625 222.253906 192.367188 222.28125 192.363281 C 222.285156 192.359375 222.285156 192.359375 222.289062 192.359375 Z M 222.394531 259.164062 C 222.402344 259.164062 222.414062 259.164062 222.425781 259.171875 C 222.441406 259.183594 222.449219 259.199219 222.449219 259.21875 L 222.445312 284.972656 C 222.445312 284.996094 222.429688 285.015625 222.410156 285.023438 L 198.015625 295.628906 C 198.007812 295.632812 198.003906 295.632812 197.996094 295.632812 L 152.914062 295.582031 C 152.914062 295.582031 152.914062 295.582031 152.910156 295.582031 C 152.894531 295.582031 152.878906 295.59375 152.867188 295.609375 C 152.863281 295.617188 152.855469 295.621094 152.847656 295.625 L 152.851562 295.625 L 152.847656 295.625 C 152.839844 295.632812 152.832031 295.632812 152.820312 295.632812 C 152.800781 295.632812 152.785156 295.625 152.773438 295.605469 C 152.769531 295.597656 152.765625 295.589844 152.765625 295.582031 L 152.765625 295.578125 L 152.648438 289.675781 C 152.648438 289.652344 152.660156 289.632812 152.683594 289.621094 L 222.371094 259.167969 C 222.378906 259.164062 222.386719 259.164062 222.394531 259.164062 Z M 226.460938 117.820312 L 148.664062 117.875 C 148.660156 117.875 148.660156 117.875 148.660156 117.875 C 148.660156 117.875 148.65625 117.875 148.65625 117.875 C 148.632812 117.878906 148.609375 117.898438 148.609375 117.925781 L 148.675781 120.714844 L 148.675781 120.71875 L 148.609375 298.5 C 148.609375 298.511719 148.613281 298.523438 148.621094 298.535156 C 148.632812 298.542969 148.644531 298.546875 148.65625 298.546875 L 212.148438 298.375 L 212.152344 298.375 L 212.316406 298.371094 C 215.316406 298.308594 218.320312 298.25 220.992188 298.25 C 222.984375 298.25 224.792969 298.285156 226.285156 298.371094 C 226.34375 298.375 226.410156 298.378906 226.46875 298.382812 C 226.46875 298.382812 226.472656 298.382812 226.472656 298.382812 C 226.484375 298.382812 226.5 298.378906 226.507812 298.371094 C 226.515625 298.359375 226.519531 298.347656 226.519531 298.335938 L 226.519531 295.425781 C 226.519531 295.421875 226.519531 295.421875 226.519531 295.417969 C 226.519531 295.414062 226.519531 295.410156 226.519531 295.410156 C 226.519531 295.410156 226.519531 295.40625 226.519531 295.40625 L 226.511719 117.980469 L 226.511719 117.867188 C 226.511719 117.855469 226.503906 117.84375 226.496094 117.835938 C 226.488281 117.824219 226.476562 117.820312 226.460938 117.820312 Z M 226.460938 117.820312 " fill-opacity="1" fill-rule="nonzero"/><path fill="#ffffff" d="M 154.699219 114.722656 C 154.691406 114.726562 154.679688 114.726562 154.671875 114.726562 C 152.578125 114.824219 150.476562 114.917969 148.847656 114.78125 C 147.214844 114.640625 146.039062 114.265625 145.152344 113.488281 C 144.585938 112.988281 144.140625 112.328125 143.890625 111.589844 C 143.75 111.175781 143.671875 110.734375 143.667969 110.285156 C 143.65625 109.039062 144.222656 107.71875 145.015625 106.878906 C 145.816406 106.03125 146.847656 105.683594 148.808594 105.53125 C 150.765625 105.375 153.675781 105.417969 156.578125 105.457031 L 225.644531 105.4375 C 225.648438 105.4375 225.648438 105.4375 225.652344 105.4375 L 225.660156 105.4375 C 227.144531 105.519531 228.664062 105.601562 229.867188 106.351562 C 230.722656 106.886719 231.414062 107.757812 231.753906 108.757812 C 231.890625 109.164062 231.96875 109.589844 231.976562 110.023438 C 232.007812 111.523438 231.191406 113.105469 230.027344 113.917969 C 228.863281 114.734375 227.359375 114.773438 225.894531 114.816406 L 154.636719 114.753906 C 154.578125 114.753906 154.53125 114.710938 154.53125 114.652344 C 154.53125 114.59375 154.578125 114.546875 154.636719 114.546875 L 225.894531 114.609375 L 225.890625 114.609375 C 227.367188 114.566406 228.804688 114.523438 229.90625 113.75 C 231.011719 112.972656 231.796875 111.460938 231.769531 110.027344 C 231.761719 109.617188 231.683594 109.210938 231.554688 108.824219 C 231.230469 107.871094 230.570312 107.039062 229.753906 106.527344 C 228.609375 105.8125 227.148438 105.726562 225.648438 105.644531 L 225.640625 105.644531 L 225.644531 105.644531 L 156.578125 105.664062 C 156.578125 105.664062 156.578125 105.664062 156.574219 105.664062 C 153.667969 105.625 150.769531 105.585938 148.824219 105.738281 C 146.878906 105.890625 145.914062 106.230469 145.167969 107.023438 C 144.410156 107.824219 143.867188 109.09375 143.875 110.285156 C 143.878906 110.710938 143.957031 111.128906 144.089844 111.523438 C 144.328125 112.226562 144.75 112.855469 145.289062 113.332031 C 146.128906 114.066406 147.253906 114.4375 148.863281 114.574219 C 150.476562 114.710938 152.566406 114.613281 154.660156 114.519531 L 154.632812 114.523438 C 154.6875 114.507812 154.746094 114.535156 154.765625 114.589844 C 154.785156 114.644531 154.753906 114.703125 154.699219 114.722656 Z M 154.699219 114.722656 " fill-opacity="1" fill-rule="nonzero"/><g clip-path="url(#d56671a984)"><path fill="#ffffff" d="M 148.953125 118.148438 L 148.992188 118.160156 C 148.085938 118.085938 147.171875 118.011719 145.972656 117.640625 C 144.777344 117.269531 143.285156 116.597656 142.113281 115.078125 C 140.949219 113.566406 140.105469 111.21875 140.433594 108.992188 C 140.488281 108.632812 140.570312 108.273438 140.683594 107.925781 C 141.25 106.121094 142.519531 104.507812 143.859375 103.582031 C 145.460938 102.472656 147.164062 102.351562 148.832031 102.230469 L 148.746094 102.378906 C 147.113281 99.101562 145.476562 95.8125 144.445312 91.398438 C 143.417969 86.984375 143 81.445312 143.558594 76.429688 C 143.863281 73.707031 144.457031 71.136719 145.203125 68.773438 C 145.832031 66.777344 146.574219 64.925781 147.347656 63.25 C 149.03125 59.585938 150.859375 56.757812 152.757812 54.367188 C 154.652344 51.976562 156.617188 50.023438 158.910156 47.996094 C 161.203125 45.964844 163.828125 43.855469 168.105469 41.914062 C 172.382812 39.976562 178.308594 38.203125 184.417969 37.851562 C 190.53125 37.5 196.824219 38.566406 202.285156 40.5 C 207.75 42.4375 212.378906 45.242188 216.652344 49.207031 C 220.921875 53.171875 224.839844 58.292969 227.371094 64.277344 C 229.902344 70.261719 231.042969 77.097656 230.832031 83.0625 C 230.664062 87.824219 229.640625 92.027344 228.667969 95.101562 C 228.421875 95.878906 228.179688 96.585938 227.957031 97.210938 C 226.847656 100.304688 226.1875 101.40625 225.527344 102.507812 L 225.445312 102.347656 L 225.457031 102.351562 C 227.503906 102.460938 229.582031 102.570312 231.433594 103.660156 C 233.289062 104.753906 234.917969 106.824219 235.109375 109.304688 C 235.179688 110.28125 235.03125 111.316406 234.71875 112.304688 C 234.238281 113.824219 233.371094 115.242188 232.332031 116.175781 C 230.613281 117.71875 228.433594 117.914062 226.300781 118.109375 C 226.242188 118.113281 226.191406 118.074219 226.1875 118.015625 C 226.179688 117.957031 226.222656 117.90625 226.28125 117.902344 C 228.429688 117.707031 230.535156 117.511719 232.191406 116.023438 C 233.199219 115.117188 234.046875 113.734375 234.519531 112.242188 C 234.824219 111.273438 234.972656 110.265625 234.898438 109.320312 C 234.71875 106.921875 233.136719 104.902344 231.328125 103.839844 C 229.527344 102.78125 227.5 102.667969 225.445312 102.558594 L 225.433594 102.558594 C 225.394531 102.554688 225.363281 102.535156 225.347656 102.503906 C 225.328125 102.46875 225.328125 102.429688 225.347656 102.398438 C 226 101.308594 226.65625 100.21875 227.757812 97.140625 C 227.980469 96.515625 228.222656 95.8125 228.46875 95.039062 C 229.4375 91.976562 230.457031 87.792969 230.625 83.058594 C 230.832031 77.121094 229.695312 70.3125 227.179688 64.359375 C 224.660156 58.40625 220.761719 53.304688 216.507812 49.359375 C 212.257812 45.414062 207.652344 42.625 202.214844 40.699219 C 196.777344 38.769531 190.511719 37.710938 184.429688 38.058594 C 178.347656 38.410156 172.449219 40.175781 168.191406 42.105469 C 163.941406 44.035156 161.332031 46.128906 159.046875 48.148438 C 156.761719 50.171875 154.808594 52.117188 152.921875 54.496094 C 151.035156 56.875 149.214844 59.691406 147.535156 63.335938 C 146.769531 65.003906 146.03125 66.847656 145.402344 68.835938 C 144.660156 71.1875 144.070312 73.746094 143.765625 76.449219 C 143.210938 81.445312 143.628906 86.960938 144.652344 91.351562 C 145.671875 95.742188 147.300781 99.007812 148.933594 102.289062 C 148.949219 102.316406 148.949219 102.355469 148.929688 102.386719 C 148.914062 102.414062 148.882812 102.433594 148.847656 102.4375 C 147.171875 102.558594 145.527344 102.683594 143.980469 103.753906 C 142.675781 104.65625 141.4375 106.230469 140.882812 107.988281 C 140.773438 108.328125 140.691406 108.675781 140.640625 109.023438 C 140.320312 111.179688 141.144531 113.476562 142.28125 114.953125 C 143.414062 116.421875 144.859375 117.078125 146.035156 117.441406 C 147.210938 117.808594 148.105469 117.878906 149.011719 117.953125 C 149.023438 117.953125 149.039062 117.957031 149.050781 117.964844 C 149.101562 117.992188 149.121094 118.054688 149.09375 118.105469 C 149.066406 118.15625 149.003906 118.175781 148.953125 118.148438 Z M 148.953125 118.148438 " fill-opacity="1" fill-rule="nonzero"/></g><path fill="#ffffff" d="M 152.273438 102.652344 C 152.253906 102.617188 152.253906 102.578125 152.273438 102.546875 C 152.292969 102.515625 152.324219 102.496094 152.363281 102.496094 L 161.414062 102.371094 L 221.703125 102.449219 L 221.613281 102.503906 C 223.109375 99.773438 224.601562 97.054688 225.691406 93.5625 C 226.785156 90.066406 227.480469 85.792969 227.59375 81.691406 C 227.707031 77.585938 227.238281 73.65625 225.742188 69.296875 C 224.242188 64.933594 221.710938 60.148438 218.808594 56.382812 C 215.902344 52.617188 212.625 49.875 209.367188 47.753906 C 206.109375 45.636719 202.875 44.140625 199.707031 43.070312 C 196.542969 42 193.441406 41.351562 189.894531 41.117188 C 186.347656 40.882812 182.347656 41.0625 177.882812 42.105469 C 174.527344 42.890625 170.910156 44.160156 167.40625 46.136719 C 166.242188 46.792969 165.09375 47.523438 163.96875 48.34375 C 159.457031 51.628906 155.367188 56.289062 152.515625 60.777344 C 149.664062 65.261719 148.046875 69.570312 147.238281 74.332031 C 146.425781 79.101562 146.417969 84.324219 147.425781 89.101562 C 148.429688 93.878906 150.449219 98.21875 152.472656 102.566406 C 152.5 102.621094 152.476562 102.679688 152.421875 102.707031 C 152.371094 102.730469 152.308594 102.707031 152.285156 102.65625 C 150.261719 98.308594 148.230469 93.949219 147.21875 89.144531 C 146.207031 84.335938 146.214844 79.089844 147.03125 74.300781 C 147.84375 69.507812 149.472656 65.175781 152.335938 60.667969 C 155.203125 56.160156 159.308594 51.476562 163.84375 48.175781 C 164.976562 47.351562 166.132812 46.613281 167.304688 45.953125 C 170.828125 43.96875 174.464844 42.691406 177.835938 41.902344 C 182.324219 40.851562 186.34375 40.671875 189.910156 40.90625 C 193.476562 41.144531 196.59375 41.796875 199.777344 42.875 C 202.957031 43.949219 206.207031 45.449219 209.480469 47.578125 C 212.753906 49.710938 216.050781 52.46875 218.972656 56.253906 C 221.890625 60.039062 224.433594 64.847656 225.9375 69.230469 C 227.445312 73.613281 227.917969 77.570312 227.800781 81.695312 C 227.6875 85.816406 226.992188 90.109375 225.890625 93.625 C 224.792969 97.140625 223.292969 99.875 221.796875 102.601562 C 221.777344 102.636719 221.742188 102.65625 221.703125 102.65625 L 161.414062 102.582031 L 152.367188 102.703125 L 152.457031 102.546875 C 152.484375 102.597656 152.464844 102.660156 152.414062 102.691406 C 152.367188 102.71875 152.300781 102.699219 152.273438 102.652344 Z M 152.273438 102.652344 " fill-opacity="1" fill-rule="nonzero"/><g clip-path="url(#6f788c754c)"><path fill="#ffffff" d="M 187.152344 40.828125 C 188.101562 40.828125 189.019531 40.863281 189.90625 40.921875 C 193.472656 41.15625 196.589844 41.808594 199.773438 42.886719 C 202.953125 43.960938 206.203125 45.460938 209.476562 47.589844 C 212.746094 49.71875 216.042969 52.476562 218.960938 56.261719 C 221.878906 60.046875 224.421875 64.851562 225.925781 69.234375 C 227.433594 73.617188 227.902344 77.570312 227.789062 81.695312 C 227.675781 85.816406 226.980469 90.105469 225.878906 93.621094 C 224.78125 97.132812 223.28125 99.867188 221.785156 102.59375 L 221.785156 102.597656 C 221.769531 102.625 221.738281 102.644531 221.703125 102.644531 L 161.417969 102.566406 C 161.414062 102.566406 161.414062 102.566406 161.414062 102.566406 L 152.429688 102.691406 C 152.425781 102.691406 152.421875 102.691406 152.421875 102.691406 C 152.417969 102.695312 152.417969 102.695312 152.417969 102.695312 C 152.40625 102.699219 152.390625 102.703125 152.378906 102.703125 C 152.359375 102.703125 152.335938 102.695312 152.320312 102.683594 C 152.320312 102.679688 152.320312 102.679688 152.316406 102.679688 L 152.316406 102.675781 C 152.304688 102.667969 152.292969 102.660156 152.285156 102.644531 C 152.277344 102.632812 152.273438 102.621094 152.273438 102.605469 C 152.273438 102.601562 152.273438 102.601562 152.273438 102.597656 C 150.257812 98.269531 148.238281 93.925781 147.234375 89.140625 C 146.222656 84.335938 146.226562 79.089844 147.042969 74.300781 C 147.859375 69.511719 149.484375 65.179688 152.347656 60.671875 C 155.210938 56.167969 159.316406 51.488281 163.851562 48.183594 C 164.984375 47.363281 166.140625 46.625 167.308594 45.964844 C 170.832031 43.980469 174.46875 42.703125 177.835938 41.914062 C 181.207031 41.128906 184.308594 40.828125 187.152344 40.828125 Z M 152.710938 105.433594 C 153.941406 105.433594 155.261719 105.449219 156.578125 105.46875 C 156.578125 105.46875 156.578125 105.46875 156.582031 105.46875 L 156.578125 105.46875 L 225.644531 105.449219 C 225.648438 105.449219 225.648438 105.449219 225.648438 105.449219 C 225.652344 105.449219 225.652344 105.449219 225.652344 105.449219 L 225.667969 105.449219 C 227.148438 105.53125 228.664062 105.617188 229.859375 106.363281 C 230.714844 106.898438 231.402344 107.765625 231.742188 108.761719 C 231.878906 109.167969 231.957031 109.589844 231.964844 110.023438 C 231.992188 111.519531 231.179688 113.097656 230.019531 113.910156 C 228.863281 114.71875 227.371094 114.761719 225.914062 114.804688 L 225.894531 114.804688 L 154.636719 114.742188 C 154.613281 114.742188 154.59375 114.734375 154.578125 114.722656 L 154.574219 114.71875 L 154.566406 114.71875 C 153.261719 114.777344 151.953125 114.835938 150.765625 114.835938 C 150.078125 114.835938 149.433594 114.816406 148.847656 114.769531 C 147.214844 114.628906 146.042969 114.253906 145.160156 113.476562 C 144.59375 112.980469 144.152344 112.324219 143.902344 111.585938 C 143.761719 111.171875 143.683594 110.734375 143.679688 110.285156 C 143.667969 109.042969 144.234375 107.726562 145.023438 106.886719 C 145.824219 106.042969 146.851562 105.695312 148.808594 105.542969 C 149.878906 105.457031 151.230469 105.433594 152.710938 105.433594 Z M 186.761719 37.980469 C 185.984375 37.980469 185.207031 38.003906 184.429688 38.046875 C 178.347656 38.398438 172.445312 40.164062 168.1875 42.09375 C 163.933594 44.023438 161.324219 46.117188 159.039062 48.140625 C 156.753906 50.164062 154.800781 52.109375 152.910156 54.488281 C 151.023438 56.867188 149.203125 59.683594 147.523438 63.332031 C 146.757812 65 146.019531 66.84375 145.390625 68.832031 C 144.648438 71.1875 144.058594 73.742188 143.753906 76.449219 C 143.195312 81.445312 143.613281 86.960938 144.636719 91.355469 C 145.660156 95.746094 147.289062 99.015625 148.921875 102.292969 C 148.9375 102.320312 148.933594 102.351562 148.917969 102.378906 C 148.90625 102.40625 148.878906 102.421875 148.847656 102.425781 C 147.171875 102.546875 145.523438 102.667969 143.972656 103.742188 C 142.667969 104.644531 141.425781 106.222656 140.871094 107.984375 C 140.761719 108.324219 140.679688 108.671875 140.628906 109.023438 C 140.308594 111.183594 141.132812 113.484375 142.269531 114.960938 C 143.40625 116.433594 144.855469 117.089844 146.03125 117.453125 C 147.035156 117.765625 147.835938 117.863281 148.609375 117.933594 C 148.613281 117.933594 148.617188 117.929688 148.617188 117.929688 C 148.621094 117.925781 148.621094 117.921875 148.621094 117.917969 L 148.625 117.917969 C 148.625 117.902344 148.640625 117.890625 148.65625 117.890625 L 148.660156 117.890625 C 148.660156 117.890625 148.660156 117.890625 148.664062 117.890625 L 226.460938 117.832031 L 226.464844 117.832031 C 226.472656 117.832031 226.480469 117.835938 226.488281 117.84375 C 226.492188 117.851562 226.496094 117.859375 226.496094 117.867188 L 226.496094 117.882812 C 226.496094 117.882812 226.5 117.886719 226.5 117.890625 C 226.503906 117.890625 226.507812 117.894531 226.511719 117.894531 C 228.578125 117.703125 230.597656 117.46875 232.203125 116.03125 C 233.210938 115.125 234.058594 113.738281 234.53125 112.246094 C 234.839844 111.277344 234.984375 110.265625 234.910156 109.316406 C 234.730469 106.914062 233.144531 104.894531 231.335938 103.828125 C 229.53125 102.769531 227.503906 102.65625 225.449219 102.546875 L 225.445312 102.546875 L 225.433594 102.542969 C 225.402344 102.542969 225.371094 102.523438 225.355469 102.496094 C 225.34375 102.46875 225.34375 102.433594 225.359375 102.40625 L 225.359375 102.402344 L 225.363281 102.402344 C 226.015625 101.3125 226.667969 100.21875 227.769531 97.144531 C 227.992188 96.519531 228.234375 95.816406 228.480469 95.042969 C 229.449219 91.976562 230.46875 87.792969 230.636719 83.058594 C 230.84375 77.121094 229.707031 70.308594 227.191406 64.355469 C 224.671875 58.398438 220.773438 53.296875 216.515625 49.351562 C 212.261719 45.402344 207.65625 42.613281 202.21875 40.683594 C 197.476562 39.003906 192.097656 37.980469 186.761719 37.980469 Z M 186.761719 37.980469 " fill-opacity="1" fill-rule="nonzero"/></g><path fill="#ffffff" d="M 157.640625 96.234375 C 157.617188 96.261719 157.578125 96.269531 157.542969 96.261719 C 157.507812 96.25 157.476562 96.222656 157.46875 96.1875 C 156.464844 92.542969 155.460938 88.886719 155.234375 84.132812 C 155.007812 79.382812 155.554688 73.53125 158.398438 67.597656 C 161.238281 61.664062 166.367188 55.65625 171.128906 52.082031 C 175.898438 48.503906 180.296875 47.367188 184.675781 46.238281 C 184.722656 46.226562 184.773438 46.246094 184.792969 46.289062 C 184.816406 46.328125 184.808594 46.382812 184.773438 46.414062 C 180.851562 50.058594 176.949219 53.683594 174.570312 58.75 C 172.191406 63.816406 171.335938 70.332031 171.503906 75.050781 C 171.671875 79.761719 172.859375 82.675781 174.050781 85.601562 C 174.0625 85.632812 174.058594 85.667969 174.039062 85.699219 C 174.019531 85.726562 173.988281 85.742188 173.953125 85.742188 C 171.839844 85.746094 169.75 85.75 167.480469 86.625 C 165.207031 87.503906 162.75 89.257812 161.09375 90.996094 C 159.441406 92.734375 158.582031 94.453125 157.71875 96.1875 C 157.691406 96.238281 157.628906 96.261719 157.578125 96.234375 C 157.527344 96.210938 157.503906 96.148438 157.53125 96.097656 C 158.394531 94.363281 159.265625 92.613281 160.941406 90.851562 C 162.617188 89.09375 165.097656 87.320312 167.402344 86.429688 C 169.714844 85.539062 171.84375 85.539062 173.953125 85.535156 L 173.855469 85.679688 C 172.664062 82.75 171.464844 79.804688 171.296875 75.058594 C 171.128906 70.316406 171.984375 63.765625 174.382812 58.660156 C 176.78125 53.554688 180.714844 49.902344 184.632812 46.261719 L 184.730469 46.4375 C 180.351562 47.570312 175.988281 48.695312 171.257812 52.246094 C 166.519531 55.800781 161.410156 61.789062 158.585938 67.6875 C 155.761719 73.582031 155.214844 79.394531 155.441406 84.125 C 155.667969 88.851562 156.667969 92.484375 157.667969 96.132812 L 157.496094 96.085938 C 157.535156 96.046875 157.601562 96.046875 157.644531 96.085938 C 157.683594 96.128906 157.683594 96.195312 157.640625 96.234375 Z M 157.640625 96.234375 " fill-opacity="1" fill-rule="nonzero"/><path fill="#ffffff" d="M 184.328125 46.535156 C 180.082031 47.632812 175.839844 48.796875 171.253906 52.242188 C 166.515625 55.796875 161.40625 61.78125 158.578125 67.683594 C 155.753906 73.582031 155.210938 79.394531 155.4375 84.125 C 155.660156 88.761719 156.625 92.351562 157.605469 95.929688 L 157.621094 95.929688 C 158.457031 94.25 159.324219 92.5625 160.949219 90.859375 C 162.621094 89.101562 165.101562 87.328125 167.40625 86.4375 C 169.65625 85.570312 171.738281 85.546875 173.796875 85.542969 L 173.800781 85.542969 L 173.804688 85.535156 C 172.632812 82.648438 171.46875 79.726562 171.304688 75.058594 C 171.132812 70.316406 171.992188 63.769531 174.386719 58.664062 C 176.722656 53.6875 180.519531 50.09375 184.335938 46.546875 L 184.335938 46.542969 Z M 184.328125 46.535156 " fill-opacity="1" fill-rule="nonzero"/><g clip-path="url(#b72e45ca60)"><path fill="#ffffff" d="M 140.0625 146.550781 L 236.265625 146.550781 L 236.265625 232.066406 L 140.0625 232.066406 Z M 140.0625 146.550781 " fill-opacity="1" fill-rule="nonzero"/></g><g fill="#ffffff" fill-opacity="1"><g transform="translate(86.505667, 185.073084)"><g><path d="M 4.695312 0 C 8.5625 0.046875 12.980469 0.320312 17.402344 0.320312 C 27.113281 0.320312 32.226562 -3.128906 32.226562 -9.300781 C 32.226562 -14.683594 27.757812 -17.308594 21.222656 -17.632812 C 26.792969 -18.230469 29.601562 -20.761719 29.601562 -25.273438 C 29.601562 -29.003906 26.148438 -32.59375 17.21875 -32.59375 C 14.410156 -32.59375 8.101562 -32.269531 4.648438 -32.226562 C 3.867188 -32.226562 2.53125 -32.316406 1.796875 -32.316406 C 1.703125 -32.316406 1.152344 -30.890625 2.671875 -30.476562 C 4.050781 -30.152344 5.0625 -29.832031 5.0625 -26.148438 L 5.0625 -6.078125 C 5.0625 -2.394531 4.050781 -2.070312 2.671875 -1.75 C 1.152344 -1.335938 1.703125 0.09375 1.796875 0.09375 C 2.53125 0.09375 3.867188 0 4.695312 0 Z M 14.640625 -18.230469 C 13.535156 -17.863281 14.179688 -16.386719 14.316406 -16.386719 L 15.882812 -16.34375 C 20.992188 -16.296875 22.878906 -13.996094 22.878906 -8.976562 C 22.878906 -3.820312 19.839844 -1.609375 16.296875 -1.609375 L 14.730469 -1.609375 C 13.304688 -1.609375 13.027344 -2.027344 13.027344 -3.542969 L 13.027344 -28.726562 C 13.027344 -30.105469 13.167969 -30.613281 14.363281 -30.613281 L 16.203125 -30.566406 C 18.507812 -30.519531 20.898438 -28.726562 20.898438 -24.214844 C 20.898438 -20.210938 19.242188 -18.921875 16.066406 -18.367188 Z M 14.640625 -18.230469 "/></g></g></g><g fill="#ffffff" fill-opacity="1"><g transform="translate(120.10057, 185.073084)"><g><path d="M 33.421875 -1.75 C 32.546875 -2.070312 31.71875 -2.394531 30.335938 -5.753906 L 20.808594 -28.957031 C 19.609375 -31.949219 19.058594 -32.226562 15.421875 -32.226562 L 10.496094 -32.226562 C 10.21875 -32.226562 9.757812 -31.027344 11.003906 -30.707031 C 11.601562 -30.519531 11.832031 -30.429688 12.199219 -29.648438 L 12.292969 -29.417969 C 12.613281 -28.679688 12.84375 -27.34375 12.429688 -26.378906 L 4.097656 -5.753906 C 2.714844 -2.394531 1.886719 -2.070312 0.921875 -1.75 C -0.136719 -1.335938 0.277344 0.136719 0.367188 0.136719 C 0.875 0.09375 1.796875 0 2.347656 0 L 5.246094 0 C 6.308594 0 8.148438 0.09375 9.070312 0.136719 C 9.207031 0.136719 9.945312 -1.335938 7.871094 -1.75 C 6.078125 -2.070312 4.789062 -2.394531 6.167969 -5.800781 L 6.859375 -7.503906 L 6.859375 -7.410156 C 7.089844 -7.824219 7.320312 -7.917969 7.824219 -7.917969 C 12.199219 -7.917969 15.835938 -7.964844 20.164062 -7.917969 C 20.578125 -7.917969 20.898438 -7.917969 21.175781 -7.597656 L 21.914062 -5.753906 C 23.339844 -2.394531 22.234375 -2.070312 20.578125 -1.75 C 18.734375 -1.335938 19.378906 0.136719 19.519531 0.136719 C 20.347656 0.09375 21.957031 0 22.972656 0 L 32.085938 0 C 32.59375 0 33.511719 0.09375 33.972656 0.136719 C 34.019531 0.136719 34.433594 -1.335938 33.421875 -1.75 Z M 19.519531 -9.945312 C 15.605469 -9.851562 12.523438 -9.851562 8.609375 -9.898438 C 8.195312 -9.898438 8.011719 -10.3125 8.195312 -10.726562 L 8.148438 -10.726562 L 14.039062 -25.136719 L 19.980469 -10.542969 C 20.023438 -10.265625 19.839844 -9.945312 19.519531 -9.945312 Z M 19.519531 -9.945312 "/></g></g></g><g fill="#ffffff" fill-opacity="1"><g transform="translate(154.385792, 185.073084)"><g><path d="M 25.734375 -12.980469 C 25.503906 -13.71875 25.273438 -14.039062 24.492188 -14.039062 C 23.019531 -14.085938 21.636719 -14.132812 20.300781 -14.226562 L 20.484375 -14.410156 C 27.714844 -14.777344 31.855469 -17.816406 31.855469 -23.339844 C 31.855469 -29.507812 27.113281 -32.546875 17.402344 -32.546875 C 12.980469 -32.546875 8.5625 -32.269531 4.695312 -32.226562 C 3.867188 -32.226562 2.53125 -32.316406 1.796875 -32.316406 C 1.703125 -32.316406 1.152344 -30.890625 2.671875 -30.476562 C 4.050781 -30.152344 5.0625 -29.832031 5.0625 -26.148438 L 5.0625 -6.078125 C 5.0625 -2.394531 4.050781 -2.070312 2.671875 -1.75 C 1.152344 -1.335938 1.703125 0.136719 1.839844 0.136719 C 2.53125 0.09375 3.867188 0 4.695312 0 L 13.441406 0 C 14.226562 0 15.605469 0.09375 16.296875 0.136719 C 16.386719 0.136719 16.941406 -1.335938 15.421875 -1.75 C 14.039062 -2.070312 13.027344 -2.394531 13.027344 -6.078125 L 13.027344 -28.863281 C 13.027344 -30.246094 13.394531 -30.613281 14.59375 -30.613281 L 16.160156 -30.613281 C 20.070312 -30.566406 22.832031 -28.265625 22.832031 -23.0625 C 22.832031 -18.460938 21.039062 -16.160156 16.386719 -15.699219 L 14.871094 -15.652344 C 14.132812 -15.558594 14.039062 -15.007812 14.316406 -14.730469 L 15.421875 -14.5 C 19.65625 -5.664062 26.332031 1.105469 32.730469 2.210938 C 34.574219 2.300781 35.171875 1.519531 35.355469 0.78125 C 33.144531 -0.875 28.910156 -4.28125 25.734375 -12.980469 Z M 25.734375 -12.980469 "/></g></g></g><g fill="#ffffff" fill-opacity="1"><g transform="translate(189.315283, 185.073084)"><g><path d="M 4.695312 0 C 8.5625 0.046875 12.980469 0.320312 17.402344 0.320312 C 27.113281 0.320312 32.226562 -3.128906 32.226562 -9.300781 C 32.226562 -14.683594 27.757812 -17.308594 21.222656 -17.632812 C 26.792969 -18.230469 29.601562 -20.761719 29.601562 -25.273438 C 29.601562 -29.003906 26.148438 -32.59375 17.21875 -32.59375 C 14.410156 -32.59375 8.101562 -32.269531 4.648438 -32.226562 C 3.867188 -32.226562 2.53125 -32.316406 1.796875 -32.316406 C 1.703125 -32.316406 1.152344 -30.890625 2.671875 -30.476562 C 4.050781 -30.152344 5.0625 -29.832031 5.0625 -26.148438 L 5.0625 -6.078125 C 5.0625 -2.394531 4.050781 -2.070312 2.671875 -1.75 C 1.152344 -1.335938 1.703125 0.09375 1.796875 0.09375 C 2.53125 0.09375 3.867188 0 4.695312 0 Z M 14.640625 -18.230469 C 13.535156 -17.863281 14.179688 -16.386719 14.316406 -16.386719 L 15.882812 -16.34375 C 20.992188 -16.296875 22.878906 -13.996094 22.878906 -8.976562 C 22.878906 -3.820312 19.839844 -1.609375 16.296875 -1.609375 L 14.730469 -1.609375 C 13.304688 -1.609375 13.027344 -2.027344 13.027344 -3.542969 L 13.027344 -28.726562 C 13.027344 -30.105469 13.167969 -30.613281 14.363281 -30.613281 L 16.203125 -30.566406 C 18.507812 -30.519531 20.898438 -28.726562 20.898438 -24.214844 C 20.898438 -20.210938 19.242188 -18.921875 16.066406 -18.367188 Z M 14.640625 -18.230469 "/></g></g></g><g fill="#ffffff" fill-opacity="1"><g transform="translate(222.910186, 185.073084)"><g><path d="M 18.921875 0 C 24.628906 0 26.46875 0.644531 27.484375 0.644531 C 28.171875 0.691406 28.679688 0.230469 28.632812 -0.738281 C 28.449219 -3.914062 28.679688 -7.226562 29.277344 -11.234375 C 29.324219 -11.371094 26.332031 -11.832031 25.871094 -9.757812 C 25.042969 -4.695312 24.535156 -3.5 23.523438 -2.808594 C 22.375 -2.070312 20.347656 -1.933594 15.144531 -1.933594 C 13.394531 -1.933594 12.980469 -1.933594 12.980469 -3.730469 L 12.980469 -14.640625 C 12.980469 -15.191406 13.167969 -16.019531 13.996094 -16.019531 C 14.5 -16.019531 16.019531 -16.019531 17.308594 -15.929688 C 18.964844 -15.789062 19.152344 -15.46875 20.070312 -12.292969 C 20.394531 -11.140625 22.144531 -11.460938 22.144531 -11.460938 C 21.683594 -14.5 21.40625 -19.058594 21.914062 -22.28125 C 21.914062 -22.28125 20.164062 -22.925781 19.796875 -21.453125 C 19.105469 -18.550781 18.875 -18.230469 17.261719 -18.09375 C 15.882812 -18 14.363281 -17.953125 13.996094 -17.953125 C 13.167969 -17.953125 12.980469 -18.78125 12.980469 -19.335938 L 12.980469 -28.632812 C 12.980469 -29.601562 13.351562 -30.292969 14.453125 -30.292969 C 19.933594 -30.292969 21.914062 -30.199219 22.925781 -29.324219 C 23.890625 -28.542969 24.351562 -26.746094 24.949219 -22.648438 C 25.320312 -20.625 28.082031 -20.992188 28.082031 -20.992188 C 27.390625 -24.996094 27.160156 -28.449219 27.4375 -31.625 C 27.484375 -32.546875 27.070312 -32.867188 26.425781 -32.867188 C 25.273438 -32.914062 23.203125 -32.226562 18.691406 -32.226562 L 4.695312 -32.226562 C 3.867188 -32.226562 2.53125 -32.316406 1.839844 -32.363281 C 1.703125 -32.363281 1.152344 -30.890625 2.671875 -30.476562 C 4.050781 -30.152344 5.0625 -29.832031 5.0625 -26.148438 L 5.0625 -6.078125 C 5.0625 -2.394531 4.050781 -2.070312 2.671875 -1.75 C 1.152344 -1.335938 1.703125 0.136719 1.839844 0.136719 C 2.53125 0.09375 3.867188 0 4.695312 0 Z M 18.921875 0 "/></g></g></g><g fill="#ffffff" fill-opacity="1"><g transform="translate(253.559782, 185.073084)"><g><path d="M 25.734375 -12.980469 C 25.503906 -13.71875 25.273438 -14.039062 24.492188 -14.039062 C 23.019531 -14.085938 21.636719 -14.132812 20.300781 -14.226562 L 20.484375 -14.410156 C 27.714844 -14.777344 31.855469 -17.816406 31.855469 -23.339844 C 31.855469 -29.507812 27.113281 -32.546875 17.402344 -32.546875 C 12.980469 -32.546875 8.5625 -32.269531 4.695312 -32.226562 C 3.867188 -32.226562 2.53125 -32.316406 1.796875 -32.316406 C 1.703125 -32.316406 1.152344 -30.890625 2.671875 -30.476562 C 4.050781 -30.152344 5.0625 -29.832031 5.0625 -26.148438 L 5.0625 -6.078125 C 5.0625 -2.394531 4.050781 -2.070312 2.671875 -1.75 C 1.152344 -1.335938 1.703125 0.136719 1.839844 0.136719 C 2.53125 0.09375 3.867188 0 4.695312 0 L 13.441406 0 C 14.226562 0 15.605469 0.09375 16.296875 0.136719 C 16.386719 0.136719 16.941406 -1.335938 15.421875 -1.75 C 14.039062 -2.070312 13.027344 -2.394531 13.027344 -6.078125 L 13.027344 -28.863281 C 13.027344 -30.246094 13.394531 -30.613281 14.59375 -30.613281 L 16.160156 -30.613281 C 20.070312 -30.566406 22.832031 -28.265625 22.832031 -23.0625 C 22.832031 -18.460938 21.039062 -16.160156 16.386719 -15.699219 L 14.871094 -15.652344 C 14.132812 -15.558594 14.039062 -15.007812 14.316406 -14.730469 L 15.421875 -14.5 C 19.65625 -5.664062 26.332031 1.105469 32.730469 2.210938 C 34.574219 2.300781 35.171875 1.519531 35.355469 0.78125 C 33.144531 -0.875 28.910156 -4.28125 25.734375 -12.980469 Z M 25.734375 -12.980469 "/></g></g></g><g fill="#ffffff" fill-opacity="1"><g transform="translate(117.630342, 224.528775)"><g><path d="M 2.53125 -5.339844 C 1.65625 -2.253906 7.640625 0.828125 13.949219 0.828125 C 22.742188 0.828125 28.035156 -2.898438 28.035156 -8.929688 C 28.035156 -14.132812 23.523438 -17.03125 18.183594 -20.394531 C 14.039062 -22.972656 11.785156 -24.261719 11.785156 -27.300781 C 11.785156 -29.417969 13.582031 -31.027344 16.941406 -31.027344 C 21.5 -31.027344 23.800781 -28.496094 23.339844 -21.773438 C 23.292969 -19.839844 25.042969 -20.210938 25.042969 -20.210938 L 27.34375 -27.667969 C 28.3125 -30.84375 21.957031 -33.007812 16.757812 -33.007812 C 8.746094 -33.007812 3.773438 -29.230469 3.773438 -24.351562 C 3.773438 -20.253906 8.054688 -17.355469 13.535156 -13.855469 C 17.355469 -11.507812 20.070312 -9.390625 20.070312 -6.214844 C 20.070312 -2.394531 16.847656 -1.195312 14.132812 -1.195312 C 8.515625 -1.195312 6.261719 -4.417969 6.675781 -11.921875 C 6.675781 -13.8125 5.15625 -13.582031 5.15625 -13.582031 Z M 2.53125 -5.339844 "/></g></g></g><g fill="#ffffff" fill-opacity="1"><g transform="translate(147.175459, 224.528775)"><g><path d="M 36.460938 -1.75 C 35.125 -2.070312 34.066406 -2.394531 34.066406 -6.078125 L 34.066406 -26.148438 C 34.066406 -29.832031 35.125 -30.152344 36.460938 -30.476562 C 38.023438 -30.890625 37.425781 -32.363281 37.335938 -32.363281 C 36.644531 -32.316406 35.308594 -32.226562 34.480469 -32.226562 L 25.734375 -32.226562 C 24.90625 -32.226562 23.570312 -32.316406 22.878906 -32.363281 C 22.789062 -32.363281 22.1875 -30.890625 23.753906 -30.476562 C 25.089844 -30.152344 26.148438 -29.832031 26.148438 -26.148438 L 26.148438 -18.320312 C 26.101562 -17.722656 25.824219 -17.449219 25.179688 -17.449219 L 13.996094 -17.449219 C 13.351562 -17.449219 13.027344 -17.722656 13.027344 -18.367188 L 13.027344 -26.148438 C 13.027344 -29.832031 14.039062 -30.152344 15.421875 -30.476562 C 16.941406 -30.890625 16.386719 -32.363281 16.296875 -32.363281 C 15.605469 -32.316406 14.226562 -32.226562 13.441406 -32.226562 L 4.695312 -32.226562 C 3.867188 -32.226562 2.53125 -32.316406 1.839844 -32.363281 C 1.703125 -32.363281 1.152344 -30.890625 2.671875 -30.476562 C 4.050781 -30.152344 5.0625 -29.832031 5.0625 -26.148438 L 5.0625 -6.078125 C 5.0625 -2.394531 4.050781 -2.070312 2.671875 -1.75 C 1.152344 -1.335938 1.703125 0.136719 1.839844 0.136719 C 2.53125 0.09375 3.867188 0 4.695312 0 L 13.441406 0 C 14.226562 0 15.605469 0.09375 16.296875 0.136719 C 16.386719 0.136719 16.941406 -1.335938 15.421875 -1.75 C 14.039062 -2.070312 13.027344 -2.394531 13.027344 -6.078125 L 13.027344 -14.640625 C 13.027344 -15.285156 13.351562 -15.515625 13.996094 -15.515625 L 25.179688 -15.515625 C 25.824219 -15.515625 26.101562 -15.285156 26.148438 -14.640625 L 26.148438 -6.078125 C 26.148438 -2.394531 25.089844 -2.070312 23.753906 -1.75 C 22.1875 -1.335938 22.789062 0.136719 22.878906 0.136719 C 23.570312 0.09375 24.90625 0 25.734375 0 L 34.480469 0 C 35.308594 0 36.644531 0.09375 37.335938 0.136719 C 37.425781 0.136719 38.023438 -1.335938 36.460938 -1.75 Z M 36.460938 -1.75 "/></g></g></g><g fill="#ffffff" fill-opacity="1"><g transform="translate(186.338832, 224.528775)"><g><path d="M 18.320312 0.828125 C 29.417969 0.828125 37.519531 -6.492188 37.519531 -16.757812 C 37.519531 -26.148438 30.429688 -33.007812 20.300781 -33.007812 C 9.714844 -33.007812 1.519531 -25.550781 1.519531 -15.515625 C 1.519531 -5.984375 8.425781 0.828125 18.320312 0.828125 Z M 21.773438 -1.609375 C 14.960938 -1.609375 9.574219 -14.5 9.574219 -21.5 C 9.574219 -26.839844 12.429688 -30.566406 17.03125 -30.566406 C 24.121094 -30.566406 29.277344 -17.863281 29.277344 -10.910156 C 29.277344 -4.925781 26.285156 -1.609375 21.773438 -1.609375 Z M 21.773438 -1.609375 "/></g></g></g><g fill="#ffffff" fill-opacity="1"><g transform="translate(225.364158, 224.528775)"><g><path d="M 16.480469 -13.210938 C 26.839844 -12.660156 31.121094 -16.847656 31.121094 -22.925781 C 31.121094 -29.230469 26.5625 -32.546875 17.21875 -32.546875 C 12.796875 -32.546875 8.515625 -32.269531 4.695312 -32.226562 C 3.867188 -32.226562 2.53125 -32.316406 1.796875 -32.316406 C 1.703125 -32.316406 1.152344 -30.890625 2.671875 -30.476562 C 4.050781 -30.152344 5.0625 -29.832031 5.0625 -26.148438 L 5.0625 -6.078125 C 5.0625 -2.394531 4.050781 -2.070312 2.671875 -1.75 C 1.152344 -1.335938 1.703125 0.136719 1.839844 0.136719 C 2.53125 0.09375 3.867188 0 4.695312 0 L 13.582031 0 C 14.640625 0 16.386719 0.09375 17.308594 0.136719 C 17.449219 0.136719 18.136719 -1.335938 16.160156 -1.75 C 14.363281 -2.070312 13.027344 -2.394531 13.027344 -6.078125 L 13.027344 -28.816406 C 13.027344 -30.292969 13.351562 -30.613281 14.59375 -30.613281 L 16.296875 -30.613281 C 20.164062 -30.566406 22.558594 -26.839844 22.558594 -22.648438 C 22.558594 -17.492188 20.394531 -15.328125 16.066406 -15.191406 L 14.640625 -15.191406 C 13.855469 -15.144531 13.855469 -14.269531 14.316406 -13.304688 Z M 16.480469 -13.210938 "/></g></g></g></svg>