<svg xmlns="http://www.w3.org/2000/svg" xmlns:xlink="http://www.w3.org/1999/xlink" width="500" zoomAndPan="magnify" viewBox="0 0 375 374.999991" height="500" preserveAspectRatio="xMidYMid meet" version="1.0"><defs><g/><clipPath id="5bc94070ab"><path d="M 121.5 189 L 253.5 189 L 253.5 303.277344 L 121.5 303.277344 Z M 121.5 189 " clip-rule="nonzero"/></clipPath></defs><path fill="#ffffff" d="M 207.523438 217.140625 C 208.816406 207.613281 221.171875 200.765625 213.371094 192.296875 C 213.371094 192.296875 217.265625 193.683594 217.105469 198.625 C 217.105469 198.625 222.214844 192.679688 218.832031 186.070312 L 218.835938 186.070312 C 226.222656 158.011719 200 168.785156 190.484375 160.222656 C 190.609375 160.644531 190.765625 161.046875 190.957031 161.4375 C 195.773438 173.390625 203.238281 176.617188 203.238281 176.617188 C 194.726562 176.128906 192.011719 163.832031 181.960938 165.046875 C 186.539062 165.683594 193.386719 173.558594 193.386719 173.558594 C 189.558594 171.824219 186.296875 169.179688 186.296875 169.179688 C 187.132812 171.007812 189.644531 172.871094 189.644531 172.871094 C 183.601562 171.921875 180.40625 161.238281 168.074219 164.105469 C 180.980469 162.421875 180.847656 175.984375 198.164062 178.492188 C 180 180.089844 173.941406 153.246094 157.332031 171.886719 C 160.683594 168.597656 166.839844 169.230469 166.839844 169.230469 C 153.347656 175.429688 153.445312 188.445312 153.445312 188.445312 C 157.1875 177.011719 165.957031 172.871094 165.957031 172.871094 C 151.472656 184.101562 155.414062 198.582031 155.414062 198.582031 C 155.515625 180.652344 169.007812 176.417969 169.007812 176.417969 C 161.125 182.230469 159.550781 195.929688 159.550781 195.929688 C 164.476562 177.898438 175.558594 176.175781 175.558594 176.175781 C 164.230469 180.949219 163.933594 194.199219 163.933594 194.199219 C 167.332031 178.9375 176.738281 178.144531 176.738281 178.144531 C 168.121094 181.835938 167.972656 190.5625 167.972656 190.5625 C 169.992188 181.351562 177.132812 180.21875 177.132812 180.21875 C 172.75 182.1875 171.570312 186.125 171.570312 186.125 C 174.769531 182.433594 178.808594 181.300781 182.898438 181.984375 C 193.894531 183.839844 198.601562 181.128906 208.136719 181.476562 C 208.136719 181.476562 208.226562 177.648438 204.25 173.3125 C 204.25 173.3125 210.089844 176.3125 210.289062 182.261719 C 210.289062 182.261719 213.21875 182.664062 215.207031 184.78125 C 215.207031 184.78125 207.289062 182.589844 201.40625 184.292969 C 201.40625 184.292969 204.265625 182.90625 207.371094 183.132812 C 207.371094 183.132812 201.824219 181.773438 195.410156 186.007812 C 194.105469 186.953125 192.953125 187.914062 192.046875 188.71875 L 192.027344 188.738281 L 192.027344 188.730469 C 190.792969 189.820312 190.039062 190.601562 190.039062 190.601562 C 190.039062 190.601562 198.519531 188.5 205.382812 192.347656 C 205.382812 192.347656 199.25 190.15625 194.09375 191.375 C 194.09375 191.375 195.953125 193.726562 197.171875 197.113281 L 183.222656 197.015625 C 183.222656 197.015625 175.472656 193.703125 170.847656 197.367188 C 168.808594 198.765625 166.570312 194.816406 164.273438 197.734375 C 163.449219 198.785156 162.542969 205.402344 168.652344 205.601562 C 168.652344 205.601562 168.003906 207.550781 167.234375 207.835938 C 167.234375 207.835938 170.359375 207.351562 170.117188 200.449219 C 170.117188 200.449219 171.097656 199.546875 171.292969 200.871094 C 173.105469 213.289062 184.480469 207.941406 183.691406 200 L 197.933594 199.867188 C 198.484375 202.757812 198.320312 206.058594 196.367188 209.191406 C 196.367188 209.191406 198.886719 206.3125 198.964844 203.632812 C 198.964844 203.632812 201.566406 217.882812 188.65625 212.769531 C 188.65625 212.769531 190.15625 214.476562 192.796875 215.289062 C 192.796875 215.289062 188.617188 215.289062 187.03125 211.550781 C 187.03125 211.550781 187.277344 213.859375 188.414062 215.324219 C 189.550781 216.789062 189.183594 219.828125 185.894531 219.671875 C 185.894531 219.671875 190.523438 221.246094 190.847656 225.183594 C 190.847656 225.183594 190.054688 222.835938 187.5625 221.863281 C 187.5625 221.863281 191.660156 224.742188 189.871094 229.09375 C 189.871094 229.09375 190.441406 223.8125 185.042969 221.734375 C 185.042969 221.734375 186.707031 223.121094 187.722656 224.785156 C 187.722656 224.785156 185.121094 221.003906 179.441406 220.929688 C 179.441406 220.929688 184.148438 222.46875 180.738281 228.808594 C 180.738281 228.808594 183.257812 225.738281 182.789062 223.121094 C 182.789062 223.121094 184.375 228.699219 178.242188 231.019531 C 178.242188 231.019531 181.589844 227.300781 180.515625 224.117188 C 180.515625 224.117188 180.554688 225.535156 180.1875 226.554688 C 180.1875 226.554688 180.78125 223.140625 178.445312 221.757812 C 178.445312 221.757812 181.347656 227.136719 173.042969 226.613281 C 173.042969 226.613281 176.558594 226.351562 177.652344 224.4375 C 177.652344 224.4375 174.6875 224.785156 173.003906 223.261719 C 171.320312 221.734375 167.847656 222.347656 168.09375 225.3125 C 168.09375 225.3125 167.300781 223.058594 169.148438 222.019531 C 169.148438 222.019531 166.285156 219.976562 167.703125 217.597656 C 169.128906 215.226562 171.945312 216.070312 173.328125 217.414062 C 174.710938 218.761719 178.890625 221.152344 182.929688 218.433594 C 182.929688 218.433594 181.144531 219.003906 179.175781 218.519531 C 179.175781 218.519531 187.152344 218.859375 185.769531 211.753906 C 185.769531 211.753906 185.058594 217.195312 178.199219 215.871094 C 178.199219 215.871094 181.410156 215.851562 182.949219 214.25 C 182.949219 214.25 178.953125 215.65625 175.664062 211.808594 C 175.664062 211.808594 176.070312 213.117188 176.859375 214.082031 C 176.859375 214.082031 174.648438 213.289062 174.324219 211.359375 C 174.324219 211.359375 174.242188 208.070312 170.992188 208.679688 C 170.992188 208.679688 173.042969 209.183594 172.558594 210.652344 C 172.558594 210.652344 170.140625 208.980469 168.476562 210.4375 C 168.476562 210.4375 169.003906 209.265625 169.613281 209.128906 C 169.613281 209.128906 168.65625 209.351562 167.738281 210.28125 C 166.777344 209.605469 166.863281 208.523438 166.863281 208.523438 C 165.980469 209.644531 167.117188 211.054688 167.117188 211.054688 C 166.816406 211.523438 166.546875 212.082031 166.363281 212.777344 C 166.363281 212.777344 167.054688 211.902344 167.425781 211.667969 C 167.425781 211.667969 167.589844 215.226562 163.488281 214.496094 C 163.488281 214.496094 164.390625 215.574219 165.984375 215.492188 C 165.984375 215.492188 163.792969 216.515625 162.53125 214.683594 C 162.53125 214.683594 162.886719 217.785156 166.542969 217.945312 C 166.542969 217.945312 167.457031 227.261719 161.8125 229.980469 C 161.8125 229.980469 164.898438 229.960938 166.296875 227.082031 C 166.296875 227.082031 165.660156 232.015625 161.769531 232.90625 C 161.769531 232.90625 163.578125 233.589844 165.546875 232.394531 C 165.546875 232.394531 161.226562 240.757812 172.507812 246.328125 C 172.507812 246.328125 166.945312 240.015625 170.359375 233.328125 C 170.359375 233.328125 166.90625 243.640625 178.761719 246.644531 C 178.761719 246.644531 182.167969 242.101562 178.882812 236.332031 C 178.882812 236.332031 183.347656 240.960938 180.34375 246.199219 C 180.34375 246.199219 191.183594 243.363281 192.96875 229.070312 C 192.96875 229.070312 192.96875 235.316406 191.265625 238.566406 C 191.265625 238.566406 202.382812 232.207031 200.234375 219.40625 C 200.234375 219.40625 201.902344 224.933594 200.882812 228.902344 C 200.882812 228.902344 205.148438 224.160156 202.792969 214.894531 C 200.4375 205.644531 201.65625 199.601562 203.648438 197.855469 C 203.648438 197.855469 201.742188 198.828125 200.96875 201.058594 C 202.105469 192.285156 214.222656 193.324219 211.21875 202.089844 C 209.050781 208.410156 206.875 209.40625 207.523438 217.140625 " fill-opacity="1" fill-rule="evenodd"/><path fill="#ffffff" d="M 208.078125 229.664062 C 208.078125 229.664062 208.859375 233.824219 190.855469 242.378906 C 190.855469 242.378906 188.699219 245.121094 188.199219 248.253906 L 185.398438 248.355469 L 187.726562 247.085938 C 187.726562 247.085938 188 244.738281 189.464844 242.726562 C 189.691406 242.472656 189.921875 242.207031 190.144531 241.921875 C 190.554688 241.496094 191.03125 241.117188 191.589844 240.796875 C 194.9375 238.882812 208.566406 232.753906 207.109375 228.625 C 207.109375 228.625 208.5625 223.875 211.898438 228.214844 L 214.105469 236.902344 L 216.808594 237.390625 C 216.808594 237.390625 213.925781 249.183594 205.039062 258.023438 C 205.039062 258.023438 213.359375 246.210938 214.195312 238.535156 C 214.195312 238.535156 210.582031 244.558594 203.519531 249.300781 C 203.519531 249.300781 210.066406 243.109375 212.105469 238.734375 C 212.105469 238.734375 208.757812 242.875 205.644531 244.304688 C 205.644531 244.304688 210.015625 240.164062 211.933594 237.148438 C 211.933594 237.148438 208.117188 240.863281 205.78125 241.976562 C 205.78125 241.976562 208.882812 238.679688 209.742188 237.464844 C 209.742188 237.464844 207.082031 240.089844 204.699219 241.425781 C 204.699219 241.425781 208.328125 237.941406 210.121094 235.328125 C 210.121094 235.328125 206.089844 238.597656 203.019531 240.355469 C 203.019531 240.355469 206.675781 236.957031 208.308594 235.144531 C 208.308594 235.144531 204.207031 238.21875 201.425781 239.425781 C 201.425781 239.425781 208.5 234.308594 210.71875 230.152344 C 210.71875 230.152344 210.910156 228.371094 209.324219 227.863281 C 207.742188 227.355469 208.078125 229.664062 208.078125 229.664062 Z M 184.492188 250.601562 L 189.332031 250.5625 C 189.332031 250.5625 196.117188 246.707031 200.074219 246.613281 C 200.074219 246.613281 195.757812 246.210938 192.09375 248.050781 C 192.09375 248.050781 196.417969 244.292969 199.359375 243.46875 C 199.359375 243.46875 193.355469 244.800781 189.972656 248.105469 C 189.972656 248.105469 191.886719 241.945312 200.921875 241.457031 C 200.921875 241.457031 204.660156 251.863281 199.941406 258.554688 C 199.941406 258.554688 194.117188 256.363281 188.59375 251.980469 L 185.210938 252.328125 C 185.210938 252.328125 181.457031 257.6875 175.757812 258.128906 C 175.757812 258.128906 173.652344 252.421875 173.8125 247.734375 C 173.835938 247.734375 178.996094 248.199219 181.65625 249.292969 C 181.65625 249.292969 179.710938 249.144531 178.882812 249.265625 C 178.882812 249.265625 183.261719 249.734375 184.492188 250.601562 " fill-opacity="1" fill-rule="evenodd"/><g clip-path="url(#5bc94070ab)"><path fill="#ffffff" d="M 187.554688 303.214844 L 121.652344 189.078125 L 146.519531 189.078125 L 146.519531 196.40625 L 134.34375 196.40625 L 187.554688 288.5625 L 214.15625 242.484375 L 240.761719 196.40625 L 225.371094 196.40625 L 225.371094 189.078125 L 253.453125 189.078125 L 187.554688 303.214844 " fill-opacity="1" fill-rule="evenodd"/></g><g fill="#ffffff" fill-opacity="1"><g transform="translate(96.021985, 127.749455)"><g><path d="M 25.71875 -37.40625 C 25.71875 -42.765625 22.808594 -45.617188 17.449219 -45.617188 L 3.761719 -45.617188 C 3.191406 -45.617188 2.851562 -45.332031 2.851562 -44.707031 L 2.851562 -0.914062 C 2.851562 -0.34375 3.191406 0 3.761719 0 L 17.449219 0 C 22.808594 0 25.71875 -2.851562 25.71875 -8.210938 L 25.71875 -18.703125 C 25.71875 -20.8125 24.175781 -22.410156 22.125 -22.753906 L 22.125 -22.867188 C 24.175781 -23.207031 25.71875 -24.804688 25.71875 -26.914062 Z M 18.132812 -28.796875 C 18.132812 -27.371094 17.335938 -26.574219 15.851562 -26.574219 L 10.664062 -26.574219 L 10.664062 -38.089844 L 15.851562 -38.089844 C 17.390625 -38.089844 18.132812 -37.292969 18.132812 -35.808594 Z M 18.132812 -9.808594 C 18.132812 -8.269531 17.335938 -7.527344 15.851562 -7.527344 L 10.664062 -7.527344 L 10.664062 -19.046875 L 15.851562 -19.046875 C 17.390625 -19.046875 18.132812 -18.246094 18.132812 -16.765625 Z M 18.132812 -9.808594 "/></g></g></g><g fill="#ffffff" fill-opacity="1"><g transform="translate(125.725407, 127.749455)"><g><path d="M 30.335938 0 C 31.019531 0 31.25 -0.34375 31.132812 -0.96875 L 21.667969 -44.820312 C 21.554688 -45.390625 21.210938 -45.617188 20.699219 -45.617188 L 12.773438 -45.617188 C 12.261719 -45.617188 11.917969 -45.390625 11.804688 -44.820312 L 2.339844 -0.96875 C 2.167969 -0.34375 2.453125 0 3.078125 0 L 9.179688 0 C 9.695312 0 9.980469 -0.285156 10.09375 -0.796875 L 11.632812 -9.125 L 21.78125 -9.125 L 23.378906 -0.796875 C 23.492188 -0.285156 23.777344 0 24.292969 0 Z M 20.355469 -15.738281 L 13.058594 -15.738281 L 16.707031 -35.640625 Z M 20.355469 -15.738281 "/></g></g></g><g fill="#ffffff" fill-opacity="1"><g transform="translate(160.274829, 127.749455)"><g><path d="M 26.289062 -37.40625 C 26.289062 -42.765625 23.4375 -45.617188 18.074219 -45.617188 L 3.761719 -45.617188 C 3.191406 -45.617188 2.851562 -45.277344 2.851562 -44.707031 L 2.851562 -0.914062 C 2.851562 -0.34375 3.191406 0 3.761719 0 L 9.695312 0 C 10.265625 0 10.605469 -0.34375 10.605469 -0.914062 L 10.605469 -15.28125 L 14.539062 -15.28125 L 18.359375 -0.796875 C 18.476562 -0.285156 18.761719 0 19.332031 0 L 25.261719 0 C 25.886719 0 26.230469 -0.34375 26.058594 -1.027344 L 22.125 -15.964844 C 24.863281 -17.164062 26.289062 -19.671875 26.289062 -23.492188 Z M 10.605469 -22.808594 L 10.605469 -38.089844 L 16.25 -38.089844 C 17.734375 -38.089844 18.53125 -37.292969 18.53125 -35.808594 L 18.53125 -25.089844 C 18.53125 -23.605469 17.734375 -22.808594 16.25 -22.808594 Z M 10.605469 -22.808594 "/></g></g></g><g fill="#ffffff" fill-opacity="1"><g transform="translate(190.548358, 127.749455)"><g><path d="M 25.71875 -37.40625 C 25.71875 -42.765625 22.808594 -45.617188 17.449219 -45.617188 L 3.761719 -45.617188 C 3.191406 -45.617188 2.851562 -45.332031 2.851562 -44.707031 L 2.851562 -0.914062 C 2.851562 -0.34375 3.191406 0 3.761719 0 L 17.449219 0 C 22.808594 0 25.71875 -2.851562 25.71875 -8.210938 L 25.71875 -18.703125 C 25.71875 -20.8125 24.175781 -22.410156 22.125 -22.753906 L 22.125 -22.867188 C 24.175781 -23.207031 25.71875 -24.804688 25.71875 -26.914062 Z M 18.132812 -28.796875 C 18.132812 -27.371094 17.335938 -26.574219 15.851562 -26.574219 L 10.664062 -26.574219 L 10.664062 -38.089844 L 15.851562 -38.089844 C 17.390625 -38.089844 18.132812 -37.292969 18.132812 -35.808594 Z M 18.132812 -9.808594 C 18.132812 -8.269531 17.335938 -7.527344 15.851562 -7.527344 L 10.664062 -7.527344 L 10.664062 -19.046875 L 15.851562 -19.046875 C 17.390625 -19.046875 18.132812 -18.246094 18.132812 -16.765625 Z M 18.132812 -9.808594 "/></g></g></g><g fill="#ffffff" fill-opacity="1"><g transform="translate(220.251782, 127.749455)"><g><path d="M 25.601562 -44.707031 C 25.601562 -45.277344 25.375 -45.617188 24.691406 -45.617188 L 3.707031 -45.617188 C 3.191406 -45.617188 2.851562 -45.277344 2.851562 -44.707031 L 2.851562 -0.914062 C 2.851562 -0.34375 3.191406 0 3.707031 0 L 24.691406 0 C 25.375 0 25.601562 -0.34375 25.601562 -0.914062 L 25.601562 -6.613281 C 25.601562 -7.242188 25.375 -7.527344 24.691406 -7.527344 L 10.433594 -7.527344 L 10.433594 -19.046875 L 21.328125 -19.046875 C 21.898438 -19.046875 22.238281 -19.386719 22.238281 -20.015625 L 22.238281 -25.660156 C 22.238281 -26.289062 21.898438 -26.628906 21.328125 -26.628906 L 10.433594 -26.628906 L 10.433594 -38.035156 L 24.691406 -38.035156 C 25.375 -38.035156 25.601562 -38.433594 25.601562 -39.003906 Z M 25.601562 -44.707031 "/></g></g></g><g fill="#ffffff" fill-opacity="1"><g transform="translate(249.841178, 127.749455)"><g><path d="M 26.289062 -37.40625 C 26.289062 -42.765625 23.4375 -45.617188 18.074219 -45.617188 L 3.761719 -45.617188 C 3.191406 -45.617188 2.851562 -45.277344 2.851562 -44.707031 L 2.851562 -0.914062 C 2.851562 -0.34375 3.191406 0 3.761719 0 L 9.695312 0 C 10.265625 0 10.605469 -0.34375 10.605469 -0.914062 L 10.605469 -15.28125 L 14.539062 -15.28125 L 18.359375 -0.796875 C 18.476562 -0.285156 18.761719 0 19.332031 0 L 25.261719 0 C 25.886719 0 26.230469 -0.34375 26.058594 -1.027344 L 22.125 -15.964844 C 24.863281 -17.164062 26.289062 -19.671875 26.289062 -23.492188 Z M 10.605469 -22.808594 L 10.605469 -38.089844 L 16.25 -38.089844 C 17.734375 -38.089844 18.53125 -37.292969 18.53125 -35.808594 L 18.53125 -25.089844 C 18.53125 -23.605469 17.734375 -22.808594 16.25 -22.808594 Z M 10.605469 -22.808594 "/></g></g></g><g fill="#ffffff" fill-opacity="1"><g transform="translate(156.163851, 149.605685)"><g><path d="M 6.484375 -13.546875 C 8.492188 -13.546875 10.253906 -13.050781 11.765625 -12.0625 L 10.484375 -9.390625 C 9.785156 -9.804688 9.035156 -10.144531 8.234375 -10.40625 C 7.429688 -10.664062 6.753906 -10.796875 6.203125 -10.796875 C 5.222656 -10.796875 4.734375 -10.46875 4.734375 -9.8125 C 4.734375 -9.394531 4.972656 -9.054688 5.453125 -8.796875 C 5.941406 -8.546875 6.53125 -8.328125 7.21875 -8.140625 C 7.914062 -7.953125 8.613281 -7.726562 9.3125 -7.46875 C 10.007812 -7.207031 10.597656 -6.785156 11.078125 -6.203125 C 11.566406 -5.617188 11.8125 -4.878906 11.8125 -3.984375 C 11.8125 -2.691406 11.304688 -1.6875 10.296875 -0.96875 C 9.285156 -0.25 8.003906 0.109375 6.453125 0.109375 C 5.335938 0.109375 4.238281 -0.078125 3.15625 -0.453125 C 2.070312 -0.835938 1.128906 -1.363281 0.328125 -2.03125 L 1.640625 -4.65625 C 2.316406 -4.0625 3.113281 -3.578125 4.03125 -3.203125 C 4.957031 -2.828125 5.773438 -2.640625 6.484375 -2.640625 C 7.035156 -2.640625 7.460938 -2.738281 7.765625 -2.9375 C 8.078125 -3.132812 8.234375 -3.425781 8.234375 -3.8125 C 8.234375 -4.175781 8.054688 -4.484375 7.703125 -4.734375 C 7.347656 -4.984375 6.910156 -5.164062 6.390625 -5.28125 C 5.867188 -5.40625 5.300781 -5.570312 4.6875 -5.78125 C 4.070312 -5.988281 3.503906 -6.210938 2.984375 -6.453125 C 2.460938 -6.691406 2.023438 -7.078125 1.671875 -7.609375 C 1.328125 -8.140625 1.15625 -8.773438 1.15625 -9.515625 C 1.15625 -10.734375 1.640625 -11.707031 2.609375 -12.4375 C 3.585938 -13.175781 4.878906 -13.546875 6.484375 -13.546875 Z M 6.484375 -13.546875 "/></g></g></g><g fill="#ffffff" fill-opacity="1"><g transform="translate(170.78644, 149.605685)"><g><path d="M 13.703125 0 L 10.296875 0 L 10.296875 -5.203125 L 4.75 -5.203125 L 4.75 0 L 1.34375 0 L 1.34375 -13.40625 L 4.75 -13.40625 L 4.75 -7.890625 L 10.296875 -7.890625 L 10.296875 -13.40625 L 13.703125 -13.40625 Z M 13.703125 0 "/></g></g></g><g fill="#ffffff" fill-opacity="1"><g transform="translate(188.126428, 149.605685)"><g><path d="M 7.6875 -13.515625 C 9.769531 -13.515625 11.5 -12.863281 12.875 -11.5625 C 14.257812 -10.269531 14.953125 -8.65625 14.953125 -6.71875 C 14.953125 -4.769531 14.257812 -3.132812 12.875 -1.8125 C 11.488281 -0.5 9.757812 0.15625 7.6875 0.15625 C 5.625 0.15625 3.898438 -0.492188 2.515625 -1.796875 C 1.140625 -3.109375 0.453125 -4.75 0.453125 -6.71875 C 0.453125 -8.664062 1.140625 -10.285156 2.515625 -11.578125 C 3.898438 -12.867188 5.625 -13.515625 7.6875 -13.515625 Z M 7.734375 -10.65625 C 6.679688 -10.65625 5.785156 -10.273438 5.046875 -9.515625 C 4.304688 -8.765625 3.9375 -7.828125 3.9375 -6.703125 C 3.9375 -5.578125 4.3125 -4.628906 5.0625 -3.859375 C 5.8125 -3.085938 6.703125 -2.703125 7.734375 -2.703125 C 8.765625 -2.703125 9.640625 -3.085938 10.359375 -3.859375 C 11.085938 -4.628906 11.453125 -5.578125 11.453125 -6.703125 C 11.453125 -7.828125 11.085938 -8.765625 10.359375 -9.515625 C 9.640625 -10.273438 8.765625 -10.65625 7.734375 -10.65625 Z M 7.734375 -10.65625 "/></g></g></g><g fill="#ffffff" fill-opacity="1"><g transform="translate(205.830016, 149.605685)"><g><path d="M 1.34375 -13.40625 L 7.171875 -13.40625 C 8.890625 -13.40625 10.21875 -13 11.15625 -12.1875 C 12.101562 -11.375 12.578125 -10.222656 12.578125 -8.734375 C 12.578125 -7.160156 12.101562 -5.9375 11.15625 -5.0625 C 10.21875 -4.195312 8.890625 -3.765625 7.171875 -3.765625 L 4.75 -3.765625 L 4.75 0 L 1.34375 0 Z M 4.75 -10.71875 L 4.75 -6.453125 L 7 -6.453125 C 7.757812 -6.453125 8.34375 -6.632812 8.75 -7 C 9.15625 -7.375 9.359375 -7.910156 9.359375 -8.609375 C 9.359375 -9.296875 9.15625 -9.816406 8.75 -10.171875 C 8.34375 -10.535156 7.757812 -10.71875 7 -10.71875 Z M 4.75 -10.71875 "/></g></g></g><path stroke-linecap="butt" transform="matrix(0.754235, 0, 0, 0.75, 228.410073, 141.730685)" fill="none" stroke-linejoin="miter" d="M 0.000110773 1.999712 L 63.645917 1.999712 " stroke="#ffffff" stroke-width="4" stroke-opacity="1" stroke-miterlimit="4"/><path stroke-linecap="butt" transform="matrix(0.754235, 0, 0, 0.75, 97.633013, 141.730685)" fill="none" stroke-linejoin="miter" d="M -0.000266215 1.999712 L 63.64554 1.999712 " stroke="#ffffff" stroke-width="4" stroke-opacity="1" stroke-miterlimit="4"/></svg>